<svg width="27" height="27" viewBox="0 0 27 27" fill="none" xmlns="http://www.w3.org/2000/svg">
<circle cx="13.5" cy="13.5" r="13.5" fill="#4E96CB"/>
<path d="M13.5012 4.5C10.9157 4.5 8.80225 6.60203 8.80225 9.17348C8.80225 11.7449 10.9157 13.847 13.5012 13.847C16.0867 13.847 18.2001 11.7449 18.2001 9.17348C18.2001 6.60203 16.0867 4.5 13.5012 4.5Z" fill="white"/>
<path d="M21.5654 17.5815C21.4423 17.2754 21.2781 16.9897 21.0935 16.7244C20.1496 15.3366 18.6927 14.4182 17.0512 14.1937C16.846 14.1734 16.6203 14.2141 16.4561 14.3366C15.5943 14.9693 14.5683 15.2958 13.5013 15.2958C12.4343 15.2958 11.4083 14.9693 10.5465 14.3366C10.3823 14.2141 10.1566 14.1529 9.95143 14.1937C8.30987 14.4182 6.83249 15.3366 5.90912 16.7244C5.72445 16.9897 5.56028 17.2958 5.43719 17.5815C5.37565 17.704 5.39615 17.8468 5.45769 17.9693C5.62186 18.255 5.82704 18.5407 6.01171 18.7856C6.29897 19.1734 6.60677 19.5203 6.95562 19.8468C7.24288 20.1325 7.57118 20.3979 7.89952 20.6632C9.52054 21.8673 11.4699 22.4999 13.4808 22.4999C15.4917 22.4999 17.4411 21.8672 19.0621 20.6632C19.3904 20.4183 19.7187 20.1325 20.006 19.8468C20.3343 19.5203 20.6626 19.1734 20.9499 18.7856C21.1551 18.5203 21.3398 18.255 21.5039 17.9693C21.6064 17.8468 21.6269 17.7039 21.5654 17.5815Z" fill="white"/>
</svg>