<svg width="415" height="332" viewBox="0 0 415 332" fill="none" xmlns="http://www.w3.org/2000/svg">
<g clip-path="url(#clip0_266_560)">
<path d="M385.151 312.421H0V332H385.151V312.421Z" fill="#FDB001"/>
<path d="M2.93114 305.636H381.24L385.151 312.421H0L2.93114 305.636Z" fill="#FDC130"/>
<path d="M335.978 115.973C335.918 116.332 335.841 116.701 335.75 117.083C335.596 117.759 335.342 118.409 334.998 119.011C334.329 120.193 333.256 121.095 331.975 121.553C331.111 121.856 330.183 121.931 329.281 121.772C328.576 121.657 327.905 121.388 327.317 120.985C326.596 120.446 325.996 119.765 325.552 118.984C324.812 117.686 324.276 116.282 323.961 114.822C323.583 113.207 323.411 111.551 323.451 109.892C323.574 106.158 324.755 104.139 326.099 104.003C328.055 103.798 329.313 105.012 331.314 107.377C333.316 109.742 335.025 108.11 335.385 108.955C335.745 109.801 336.671 111.998 335.978 115.973Z" fill="#ECB7B0"/>
<path d="M297.212 306.141L297.121 305.718C296.56 303.08 293.342 288.435 286.823 268.602C279.611 246.653 274.602 229.585 270.937 218.242C268.68 211.27 263.684 194.593 260.169 182.768L259.996 182.868C259.084 181.304 258.597 178.22 258.423 176.888C257.607 174.132 257.224 171.912 256.883 170.757C255.296 171.244 245.974 173.873 233.42 173.359C220.588 172.831 209.442 168.606 207.892 167.988C207.532 171.003 209.323 202.134 211.539 217.656C213.754 233.178 218.304 261.316 220.382 273.5C222.206 284.188 225.429 301.697 226.445 305.877C226.491 306.194 226.59 306.501 226.737 306.786C227.102 306.786 231.131 308.478 233.821 307.878C233.821 307.878 233.821 307.077 233.862 305.668C233.967 299.223 234.222 279.876 233.821 263.876C233.333 244.366 232.845 217.91 232.845 209.256C232.845 200.601 232.845 191.332 234.555 191.819C236.264 192.305 241.033 202.184 246.284 216.205C251.535 230.226 260.219 247.295 267.308 263.39C274.397 279.485 291.259 307.878 291.259 307.878C291.259 307.878 295.416 308.969 296.515 307.878C297.613 306.786 297.212 306.141 297.212 306.141Z" fill="url(#paint0_linear_266_560)"/>
<path d="M205.882 78.4569C205.152 78.5524 203.543 73.154 204.149 72.5445C204.756 71.9351 206.474 75.3506 206.716 75.105C206.958 74.8594 207.815 68.033 208.425 68.3377C209.036 68.6424 208.612 74.4365 209.041 74.3137C209.469 74.1909 209.834 67.4235 210.864 67.7283C211.894 68.033 211.233 75.005 211.416 75.0413C211.598 75.0777 212.273 70.2887 213.308 70.7754C214.342 71.262 212.637 77.1789 212.82 77.2971C213.002 77.4154 214.037 73.7634 214.712 74.009C215.386 74.2546 212.619 82.1634 212.619 82.1634C211.618 80.9794 210.444 79.9522 209.136 79.1163C208.144 78.5728 207.009 78.3428 205.882 78.4569Z" fill="#ECB7B0"/>
<path d="M212.628 82.1634C212.628 82.1634 209.492 77.9247 205.813 78.3613C205.813 78.3613 202.622 88.0667 198.716 96.9306C194.809 105.795 189.179 116.278 180.381 113.84C171.875 111.479 166.181 106.841 147.701 104.039C147.109 104.912 146.516 105.503 146.101 105.217C145.686 104.93 145.577 104.421 145.536 103.725C125.642 100.996 115.823 101.97 106.487 102.861C97.1515 103.753 93.4956 105.854 91.1069 93.3105C88.7183 80.7672 85.819 66.4776 85.819 66.4776C85.819 66.4776 78.9812 64.1536 78.3977 65.427C77.4085 67.5691 78.498 83.0457 79.8245 94.9113C81.1511 106.777 82.2087 112.148 88.969 115.564C95.7293 118.979 106.082 115.809 110.558 119.379C115.035 122.949 116.671 127.111 116.753 137.912C116.835 148.714 116.753 172.376 116.753 172.376C116.753 172.376 126.445 176.015 144.615 175.56C162.785 175.105 166.637 171.549 166.637 171.303C166.637 171.058 166.555 150.574 166.637 142.61C166.719 134.647 165.981 129.526 167.207 128.63C168.433 127.734 180.158 132.696 186.841 131.395C193.524 130.094 203.297 120.48 208.024 104.562C212.751 88.6443 212.628 82.1634 212.628 82.1634Z" fill="url(#paint1_linear_266_560)"/>
<path d="M40.3932 48.9544C40.9266 48.7361 44.2406 48.2222 44.4275 47.5491C44.6144 46.876 41.4918 47.1852 41.6149 46.6986C41.738 46.212 45.8954 41.7595 45.0338 41.0864C44.1722 40.4133 41.1226 44.8658 40.881 44.6247C40.6394 44.3837 44.3637 40.286 43.4474 39.5902C42.5312 38.8943 39.4769 43.2831 39.4769 43.2831C39.4769 43.2831 40.3887 40.0404 39.8416 39.5902C39.2946 39.1399 37.339 43.1012 37.339 43.1012C37.339 43.1012 37.6399 40.9636 36.9105 40.7226C36.1811 40.4816 35.2557 45.3524 35.2557 45.3524C35.2557 45.3524 37.5213 50.1141 40.3932 48.9544Z" fill="#ECB7B0"/>
<path d="M78.3977 65.4088C78.2883 65.2541 78.5846 62.73 78.8262 62.2252C79.0678 61.7204 82.3089 60.5789 84.2007 62.2252C86.0925 63.8716 85.7916 67.0369 85.819 66.855C85.8463 66.6731 79.4963 66.996 78.3977 65.4088Z" fill="#ECB7B0"/>
<path d="M79.2547 64.1263C80.0661 63.6305 77.9692 59.0644 76.9754 59.733C75.9817 60.4015 78.1515 64.813 79.2547 64.1263Z" fill="#ECB7B0"/>
<path d="M80.5311 63.6396C81.2149 63.5532 80.9049 58.6369 79.4371 57.9138C77.9692 57.1906 79.1864 63.8261 80.5311 63.6396Z" fill="#ECB7B0"/>
<path d="M82.0992 63.2757C82.7055 63.2529 83.0428 60.415 82.9836 59.0734C82.9243 57.7317 81.771 56.3446 80.8775 56.572C79.984 56.7994 80.2986 63.3393 82.0992 63.2757Z" fill="#ECB7B0"/>
<path d="M83.5306 63.2759C84.3466 63.5624 85.354 60.5971 85.4862 58.9508C85.6184 57.3044 84.4286 56.1538 83.5306 56.9997C82.6326 57.8456 82.3044 62.8529 83.5306 63.2759Z" fill="#ECB7B0"/>
<path d="M84.693 64.2081C85.8281 64.8039 88.7228 61.1883 87.3187 60.0058C85.9147 58.8233 83.7904 63.7306 84.693 64.2081Z" fill="#ECB7B0"/>
<path d="M258.592 176.224C258.173 175.724 253.249 177.898 253.427 178.434C253.605 178.971 257.986 177.948 257.986 177.948C257.986 177.948 252.67 179.853 252.784 180.449C252.898 181.045 255.479 180.631 256.153 180.144C256.73 179.764 257.34 179.436 257.977 179.167C257.977 179.167 253.286 182.609 253.5 183.069C253.91 183.978 258.341 181.25 258.341 181.25C258.341 181.25 255.469 184.36 255.843 184.729C256.299 185.184 259.568 183.401 259.992 182.855C259.996 182.828 260.169 178.102 258.592 176.224Z" fill="#ECB7B0"/>
<path d="M66.8464 98.2085C66.6823 98.918 66.3905 99.8185 66.0897 100.769C65.7022 101.897 65.2236 103.102 64.7221 104.194C64.0794 105.603 63.3819 106.818 62.8075 107.345C62.3958 107.697 62.023 108.092 61.6952 108.523C61.595 108.555 61.4992 108.573 61.3989 108.601C60.6468 108.8 59.848 108.724 59.147 108.387C59.0923 108.278 59.0331 108.169 58.9738 108.068C58.844 107.838 58.701 107.614 58.5453 107.4C58.0895 106.804 57.6336 106.154 57.1777 105.463C56.5219 104.488 55.9384 103.466 55.4318 102.406C55.0429 101.598 54.7374 100.752 54.5201 99.8822C54.4327 99.196 54.4113 98.5031 54.4563 97.8129C54.4563 97.7356 54.4836 97.6537 54.5019 97.59C55.2951 95.0841 56.576 96.544 58.9009 95.6981C59.888 95.2637 60.8088 94.6926 61.636 94.0017C62.0918 93.6606 62.5477 93.3058 62.9534 92.9875C63.8286 92.3326 64.5717 91.8732 65.0686 92.037C66.2811 92.4417 67.4618 95.5844 66.8464 98.2085Z" fill="#ECB7B0"/>
<path d="M41.8565 118.57C43.6526 117.083 42.7682 115.386 41.8565 112.398C39.3676 111.989 37.2478 110.952 34.964 108.805C29.4254 103.593 25.9928 98.6907 25.6646 87.662C25.4549 80.5808 36.4091 54.4984 40.2063 49.0044C39.4243 48.154 38.5652 47.3776 37.6399 46.685C36.9499 46.1878 36.1787 45.8139 35.3606 45.5798C32.7349 47.6582 27.4196 53.8844 21.6121 64.1218C15.8045 74.3592 13.5754 80.2898 13.6073 90.0951C13.6392 99.191 15.3988 112.235 24.4839 122.472C26.9683 125.269 30.4921 126.756 33.7059 128.139C33.7059 128.057 33.6785 127.984 33.6694 127.898C33.364 122.836 39.6593 120.398 41.8565 118.57Z" fill="#51B6A5"/>
<path d="M61.408 108.614C60.6559 108.813 59.8571 108.738 59.1561 108.4C59.6687 109.37 59.7768 110.503 59.457 111.552C59.4012 111.721 59.3357 111.886 59.261 112.048C59.2807 112.073 59.3056 112.093 59.3339 112.107C59.646 112.247 60.0001 112.263 60.3233 112.15C60.6465 112.038 60.9141 111.806 61.0707 111.502C61.1057 111.436 61.1362 111.368 61.1619 111.297L61.4263 109.051C61.4217 108.887 61.4126 108.741 61.408 108.614Z" fill="#ECB7B0"/>
<path d="M72.2756 106.804C70.3245 103.939 68.5513 101.319 68.7336 95.5253C68.9159 89.7312 66.2902 85.7154 60.9066 85.6517C57.5515 85.6108 53.8864 86.5022 52.3548 92.4736C50.8231 98.4451 49.3051 100.765 47.1033 102.288C44.9016 103.812 40.2655 105.695 41.2411 110.151C41.4188 110.97 41.6331 111.721 41.8382 112.394C42.7499 115.386 43.6616 117.078 41.8382 118.565C39.641 120.384 33.3457 122.831 33.6329 127.893C33.6329 127.979 33.6557 128.052 33.6693 128.134C33.9975 131.263 36.8603 132.35 40.5071 132.432C42.648 132.441 44.7849 132.248 46.8891 131.854C53.2437 130.758 56.3572 127.22 56.2979 124.173C56.2386 121.126 52.8152 116.614 56.1156 114.972C57.4528 114.375 58.5472 113.342 59.2199 112.043C59.2947 111.882 59.3601 111.717 59.4159 111.548C59.7358 110.499 59.6277 109.366 59.1151 108.396C59.0604 108.287 59.0057 108.178 58.9419 108.073C58.8047 107.842 58.6524 107.62 58.486 107.409C56.854 105.249 55.0808 102.12 54.4563 99.8959C54.2885 99.2153 54.2667 98.507 54.3924 97.8175C54.3924 97.7447 54.4198 97.6628 54.4426 97.5992C55.2358 95.0932 56.5167 96.5577 58.8416 95.7072C59.83 95.2716 60.751 94.6973 61.5767 94.0017C62.0325 93.6515 62.4884 93.3013 62.8896 92.9875C63.7557 92.3463 64.5078 91.8869 65.0047 92.0461C66.2082 92.4372 67.3888 95.5844 66.778 98.204C66.1671 100.824 64.1523 106.077 62.7437 107.35C62.3319 107.703 61.9576 108.098 61.6268 108.528C61.4935 108.675 61.3995 108.853 61.3533 109.046L61.0889 111.293L61.0661 111.498C65.353 111.344 69.6421 111.735 73.83 112.662C74.0716 111.425 73.6431 108.755 72.2756 106.804Z" fill="#3A28B1"/>
<path d="M86.9541 212.389C86.8811 212.621 85.0805 214.377 82.0081 216.064C81.4519 216.378 80.8456 216.678 80.1846 216.974C80.1062 217.013 80.0255 217.048 79.943 217.078C78.6699 217.652 77.3509 218.119 75.9999 218.475C73.9044 218.997 71.7702 219.35 69.618 219.53L69.3627 219.557C67.2703 219.748 64.9409 219.871 62.4793 219.88C58.8961 219.891 55.3161 219.667 51.7622 219.211C51.6809 219.202 51.6003 219.188 51.5206 219.17C49.6972 218.934 47.8737 218.625 46.0822 218.238C44.2907 217.851 42.522 217.392 40.8217 216.846C38.392 216.041 36.3133 215.241 34.5218 214.468C34.4443 214.436 34.3668 214.395 34.2939 214.368C31.863 213.336 29.5341 212.08 27.3375 210.616C26.3259 209.961 25.3969 209.186 24.5705 208.31C24.4429 200.578 29.088 186.366 33.4277 177.097C37.7675 167.829 39.2946 167.278 39.8416 165.882C39.8416 165.882 41.2593 167.365 44.6098 168.866C44.6837 168.904 44.7598 168.937 44.8378 168.966C48.0535 170.318 51.4481 171.201 54.9167 171.585L55.1583 171.612C55.719 171.685 56.2934 171.744 56.8905 171.79C59.4395 172.021 62.0016 172.074 64.558 171.949C64.6384 171.943 64.7192 171.943 64.7996 171.949C66.9643 171.853 69.1084 171.486 71.1815 170.858L71.4186 170.794C72.1688 170.549 72.8867 170.215 73.5565 169.798C73.5565 169.798 76.7931 175.524 81.265 185.889C85.7369 196.253 87.0726 212.03 86.9541 212.389Z" fill="url(#paint2_linear_266_560)"/>
<path d="M25.0173 308.592C23.5251 308.851 21.9893 308.651 20.6137 308.019C20.6137 308.019 20.6137 307.783 20.6137 307.328C18.649 308.515 15.5401 311.134 16.0552 311.707C16.5703 312.28 20.053 313.886 28.035 308.724C28.035 308.724 28.8875 306.955 28.2584 305.95C27.4971 307.505 26.5535 308.265 25.0173 308.592Z" fill="#13005E"/>
<path d="M68.6835 306.154C68.6515 306.154 68.6288 306.045 68.6014 305.909H68.5786V305.777C68.5786 305.841 68.5786 305.909 68.5786 305.977C68.6014 306.932 68.647 308.192 70.402 308.933C72.2756 309.715 78.2017 313.445 80.8228 311.707C83.1021 310.179 78.4478 307.159 75.6945 305.877C75.6451 306.178 75.561 306.473 75.4438 306.755C74.8739 307.61 69.0117 306.313 68.6835 306.154Z" fill="#13005E"/>
<path d="M27.3421 210.606C26.0155 218.675 23.2394 238.999 21.6713 254.13C20.1761 268.797 20.5362 302.125 20.6046 307.341C20.6046 307.796 20.6046 308.033 20.6046 308.033C21.9801 308.665 23.516 308.865 25.0081 308.606C26.5443 308.278 27.488 307.519 28.2447 305.963C28.6615 305.062 28.9941 304.124 29.2384 303.162C31.7807 294.786 33.2826 286.13 33.7103 277.388C34.5263 263.326 35.7571 263.813 39.8325 244.061C42.5995 230.658 44.8788 222.267 46.0549 218.265C44.2848 217.883 42.5352 217.413 40.8125 216.855C33.9337 214.586 29.7444 212.262 27.3421 210.606Z" fill="#ECB7B0"/>
<path d="M83.2708 226.979C82.8559 221.799 82.3591 218.283 82.0081 216.064C80.116 217.11 78.1029 217.921 76.0136 218.479C73.0049 219.279 68.1045 219.843 62.4747 219.88C63.6144 228.066 65.2098 242.219 66.4817 254.772C67.8492 268.511 68.2777 277.511 68.1911 287.517C68.1228 296.658 68.3142 304.494 68.6014 305.886C68.6288 306.022 68.6515 306.118 68.6835 306.132C69.0117 306.291 74.8739 307.587 75.4438 306.732C75.561 306.45 75.6451 306.155 75.6945 305.854C76.7338 301.215 80.016 279.867 81.6206 269.798C83.4258 258.683 84.0822 237.226 83.2708 226.979Z" fill="#ECB7B0"/>
<path d="M329.026 123.959C329.24 123.918 329.3 123.027 329.281 121.785C328.576 121.665 327.906 121.393 327.317 120.989C324.581 119.084 323.323 113.635 323.446 109.892C323.569 106.149 324.755 104.144 326.095 104.003C328.05 103.798 329.313 105.017 331.31 107.377C333.306 109.738 335.016 108.109 335.385 108.965C335.754 109.82 336.853 112.412 335.745 117.087C335.175 119.502 333.676 120.967 331.98 121.562C331.863 122.261 331.838 122.972 331.907 123.677C337.112 123.231 342.344 123.179 347.556 123.522C346.294 121.943 345.178 120.252 344.224 118.47C341.033 112.289 342.022 108.146 341.033 103.98C340.044 99.814 336.798 96.2803 328.725 97.9903C320.652 99.7003 321.737 107.741 322.083 112.926C322.24 116.833 322.028 120.746 321.45 124.614C323.273 124.514 325.274 124.368 327.572 124.132C328.049 124.022 328.536 123.964 329.026 123.959Z" fill="#13005E"/>
<path d="M351.308 147.567C350.574 152.493 349.567 167.046 350.287 174.4C350.856 173.736 351.318 172.987 351.655 172.181C352.566 170.307 354.102 171.203 358.492 171.126C362.882 171.048 366.803 170.475 367.819 163.563C368.836 156.65 363.384 152.193 359.878 148.445C357.877 146.303 356.632 143.47 355.775 140.554C353.15 140.191 352.056 142.578 351.308 147.567Z" fill="#13005E"/>
<path d="M299.373 135.584C300.002 134.733 300.904 133.128 301.447 130.417C302.359 125.946 302.327 124.1 302.327 124.1C300.895 122.854 295.689 117.969 293.852 111.316C291.71 103.584 289.084 85.7153 291.163 72.6582C291.778 68.7879 293.178 67.8464 293.365 67.0505C293.551 66.2547 293.301 65.8317 292.567 66.2001C291.833 66.5685 291.04 68.2103 290.798 67.9101C290.557 67.6099 291.651 62.6618 290.798 62.2979C289.946 61.9341 289.576 66.8095 289.576 66.8095C289.576 66.8095 289.576 61.8704 288.665 61.4429C287.753 61.0154 287.995 66.6867 287.995 66.6867C287.995 66.6867 287.507 62.4207 286.955 62.2388C286.404 62.0569 286.404 67.5372 286.404 67.3553C286.404 67.1733 285.793 63.394 285.123 63.5213C284.453 63.6487 284.389 67.7236 283.349 73.1493C282.31 78.575 280.113 86.4976 281.207 100.337C282.301 114.176 284.147 118.442 286.285 123.14C288.423 127.838 296.186 134.965 298.689 136.366C298.932 136.118 299.16 135.857 299.373 135.584Z" fill="#ECB7B0"/>
<path d="M327.554 124.114L329.008 123.959C328.519 123.958 328.031 124.009 327.554 124.114Z" fill="#ECB7B0"/>
<path d="M414.936 112.412C414.48 111.889 412.899 115.545 412.657 115.423C412.415 115.3 413.956 110.911 413.268 110.506C412.579 110.101 410.624 115.013 410.624 115.013C410.624 115.013 411.394 107.905 410.66 107.618C409.926 107.332 408.627 113.712 408.299 113.753C407.971 113.794 407.889 108.796 407.387 108.837C406.886 108.878 406.658 114.449 406.53 114.608C406.403 114.768 404.415 110.788 403.927 111.357C403.44 111.925 405.632 117.333 405.632 118.142C405.632 118.952 404.21 123.713 400.299 129.689C396.388 135.665 391.013 141.309 383.965 140.7C376.918 140.091 367.792 133.059 367.792 133.059L363.689 145.757C365.057 147.04 371.635 152.406 383.118 153.034C394.601 153.662 401.27 147.122 403.772 141.937C407.419 134.356 412.634 119.561 412.94 118.406C413.245 117.251 415.388 112.944 414.936 112.412Z" fill="#ECB7B0"/>
<path d="M325.324 305.427C325.051 305.019 324.81 304.59 324.604 304.144C322.275 304.985 318.765 306.796 319.134 308.333C319.544 310.052 324.107 309.893 328.096 309.242C330.026 308.975 331.933 308.56 333.799 308.001C333.799 308.001 333.234 303.908 332.495 302.884C332.538 303.186 332.565 303.489 332.577 303.794C332.568 306.232 326.382 306.755 325.324 305.427Z" fill="#13005E"/>
<path d="M332.486 302.893C331.82 297.295 327.139 270.799 325.051 261.716C315.1 259.119 309.866 256.627 307.195 254.581C308.741 259.806 313.299 274.937 315.464 281.536C317.707 288.395 322.608 300.183 324.581 304.158C324.787 304.604 325.028 305.032 325.302 305.44C326.359 306.768 332.545 306.245 332.545 303.812C332.541 303.505 332.522 303.198 332.486 302.893Z" fill="#ECB7B0"/>
<path d="M378.609 298.514C378.281 300.788 372.82 302.661 372.227 302.411C372.08 302.302 371.959 302.162 371.872 302.002C370.194 303.88 367.91 307.942 367.828 309.079C367.746 310.216 370.841 310.216 373.043 309.079C375.245 307.942 379.238 302.862 379.316 302.429C379.393 301.997 378.705 298.864 378.559 297.29C378.609 297.696 378.626 298.105 378.609 298.514Z" fill="#13005E"/>
<path d="M378.573 297.29C378.153 291.405 374.538 267.801 371.525 257.364C367.924 259.838 362.262 262.203 355.356 263.508C357.635 269.084 362.554 280.84 365.326 287.862C367.942 294.507 370.796 300.415 371.89 302.002C371.977 302.162 372.099 302.302 372.246 302.411C372.815 302.661 378.276 300.792 378.627 298.514C378.643 298.105 378.624 297.696 378.573 297.29Z" fill="#ECB7B0"/>
<path d="M374.279 255.026C373.46 255.907 372.542 256.692 371.544 257.364C367.942 259.838 362.285 262.203 355.37 263.508C347.208 265.041 338.817 264.886 330.717 263.053C328.68 262.599 326.806 262.144 325.065 261.689C315.123 259.088 309.894 256.6 307.213 254.549C305.714 253.407 305.012 252.407 304.725 251.593C304.15 249.978 301.383 243.957 301.465 233.546C301.547 223.136 303.093 212.335 307.806 199.655C309.894 194.047 311.909 188.954 313.527 185.011C315.145 181.068 316.344 178.284 316.773 177.279C316.773 177.279 318.163 178.821 322.393 180.008L322.872 180.135C325.024 180.666 327.219 180.999 329.432 181.131C329.591 181.131 329.755 181.159 329.92 181.172C331.068 181.249 332.308 181.29 333.648 181.29C335.321 181.29 336.839 181.209 338.207 181.081L338.69 181.027C341.092 180.798 343.455 180.269 345.724 179.453C345.888 179.398 346.048 179.335 346.18 179.276C349.444 177.966 350.57 176.488 350.57 176.488C350.57 176.488 358.962 194.943 364.245 212.18C369.529 229.417 374.279 255.026 374.279 255.026Z" fill="#51B6A5"/>
<path d="M335.504 123.877C335.098 123.55 332.29 124.4 331.962 123.832C331.936 123.783 331.917 123.731 331.907 123.677C331.838 122.972 331.863 122.261 331.98 121.562C331.114 121.864 330.185 121.94 329.281 121.785C329.281 123.027 329.24 123.918 329.026 123.959L327.572 124.114C327.424 124.137 327.285 124.198 327.168 124.292C327.052 124.385 326.961 124.507 326.906 124.646C326.706 125.419 327.604 129.726 328.784 132.941C329.965 136.157 330.699 137.526 331.597 137.448C332.495 137.371 333.097 132.978 333.999 129.608C334.902 126.238 335.914 124.2 335.504 123.877Z" fill="#ECB7B0"/>
<path d="M353.346 124.318C351.441 123.896 349.505 123.63 347.556 123.523C342.344 123.179 337.112 123.231 331.907 123.677C331.917 123.731 331.936 123.783 331.962 123.832C332.29 124.4 335.098 123.55 335.504 123.877C335.909 124.205 334.897 126.233 333.999 129.608C333.101 132.982 332.486 137.371 331.597 137.448C330.708 137.526 329.965 136.148 328.784 132.941C327.604 129.735 326.706 125.419 326.906 124.646C326.96 124.51 327.047 124.389 327.161 124.296C327.274 124.203 327.409 124.14 327.554 124.114C325.274 124.35 323.25 124.496 321.431 124.596C315.884 124.891 312.159 124.714 307.756 125.214C304.401 125.601 302.327 124.123 302.286 124.1C302.286 124.1 302.286 125.947 301.406 130.417C300.863 133.146 299.961 134.733 299.332 135.584C299.134 135.873 298.901 136.138 298.639 136.37C300.462 137.671 305.901 139.522 307.925 139.44C309.949 139.358 310.614 140.091 311.512 141.96C312.41 143.829 310.778 147.813 310.942 151.629C311.106 155.445 316.481 159.278 317.78 162.999C319.079 166.719 317.124 173.809 316.709 177.302C316.709 177.302 320.306 181.286 333.575 181.286C346.845 181.286 350.574 176.506 350.574 176.506C350.46 175.906 350.365 175.205 350.287 174.419C349.567 167.046 350.574 152.493 351.308 147.586C352.042 142.678 353.132 140.209 355.771 140.591C356.025 140.627 356.277 140.682 356.523 140.755C359.714 141.732 363.694 145.757 363.694 145.757L367.796 133.06C366.037 131.727 357.011 125.296 353.346 124.318Z" fill="url(#paint3_linear_266_560)"/>
<path d="M146.457 99.7322C146.297 99.6194 146.145 99.4964 146.001 99.3638C145.791 100.687 145.454 102.452 145.545 103.725C145.586 104.421 145.746 104.971 146.11 105.217C146.475 105.463 147.118 104.912 147.71 104.039C148.401 102.964 149.011 101.839 149.534 100.674C148.427 100.743 147.333 100.409 146.457 99.7322Z" fill="#ECB7B0"/>
<path d="M155.824 93.4378C155.501 94.3247 155.118 95.2252 154.717 96.1393C154.467 96.7103 154.161 97.2556 153.805 97.7675C152.67 99.473 151.134 100.555 149.502 100.674C148.403 100.733 147.319 100.401 146.443 99.7367C146.288 99.6185 146.142 99.4957 145.987 99.3684C144.908 98.3305 144.138 97.0144 143.763 95.5663C143.763 95.4662 143.307 93.215 143.571 92.601C143.835 91.987 142.413 91.8051 141.871 90.2179C141.68 89.7196 141.579 89.1914 141.574 88.658C141.608 88.4631 141.663 88.2725 141.739 88.0895C141.845 87.8362 142 87.6061 142.194 87.4118C142.298 87.3623 142.407 87.3227 142.518 87.2936C143.012 87.2657 143.5 87.4017 143.908 87.6801C143.937 87.711 143.963 87.7445 143.986 87.7802L144.063 87.7393C144.246 87.8473 144.45 87.9131 144.662 87.932C144.873 87.9509 145.086 87.9223 145.285 87.8484C146.343 87.4209 146.311 86.3203 147.642 86.0838C148.973 85.8473 151.503 84.3101 152.237 83.2141C152.971 82.118 153.645 81.4404 155.227 82.359C155.824 82.6978 156.299 83.215 156.585 83.8377C156.872 84.4603 156.955 85.1569 156.823 85.8291C156.763 86.0929 156.9 86.1748 157.124 86.1384C157.306 88.5897 156.741 90.9592 155.824 93.4378Z" fill="#ECB7B0"/>
<path d="M113.33 307.86C110.139 308.965 108.771 307.378 108.771 307.378C108.771 307.223 108.771 306.923 108.771 306.468C106.25 307.378 103.255 309.388 103.41 310.689C103.579 312.053 107.969 311.903 111.803 311.093C115.636 310.284 117.177 309.11 117.177 309.006C117.177 308.901 118.403 305.468 118.089 303.244C118.025 303.508 117.945 303.768 117.847 304.021C117.154 305.418 116.493 306.755 113.33 307.86Z" fill="#F44234"/>
<path d="M173.534 307.696C170.343 307.942 166.938 306.154 166.938 306.154C166.938 306.154 166.902 306 166.842 305.731C166.615 307.782 167.02 310.466 167.754 310.707C168.488 310.948 181.845 311.111 182.902 309.97C183.814 308.974 180.395 306.85 177.117 305.636C176.894 306.373 176.073 307.505 173.534 307.696Z" fill="#F44234"/>
<path d="M173.863 254.049C173.375 243.238 169.71 201.784 168.894 191.378C168.078 180.972 166.614 171.303 166.614 171.303C166.614 171.549 162.785 175.042 144.615 175.533C126.445 176.024 116.753 172.349 116.753 172.349C116.585 174.873 113.33 207.141 112.678 216.81C112.026 226.479 109.487 256.377 109.095 266.314C108.717 275.51 108.685 301.111 108.748 306.477C108.748 306.9 108.748 307.214 108.748 307.387C108.748 307.387 110.116 308.974 113.307 307.869C116.498 306.764 117.132 305.427 117.788 304.049C117.885 303.795 117.966 303.535 118.03 303.271C119.174 298.973 123.14 279.017 125.528 262.999C128.136 245.526 132.207 218.884 134.244 211.471C136.282 204.058 139.541 190.095 141.579 190.659C143.617 191.223 147.446 203.257 150.053 219.352C152.661 235.447 159.262 269.834 160.971 278.771C162.525 286.912 166.181 302.939 166.82 305.74C166.879 306.009 166.915 306.163 166.915 306.163C166.915 306.163 170.339 307.951 173.512 307.705C176.051 307.514 176.871 306.382 177.099 305.645C177.15 305.499 177.178 305.345 177.181 305.19C177.204 304.613 174.35 264.854 173.863 254.049Z" fill="#3A28B1"/>
<path d="M162.416 78.5796C162.375 78.1251 162.21 77.6904 161.94 77.3224C161.669 76.9545 161.303 76.6673 160.881 76.4917C160.458 76.3162 159.996 76.2591 159.544 76.3265C159.091 76.3938 158.666 76.5832 158.313 76.8741C156.846 78.0929 156.545 76.9924 155.688 75.6553C154.831 74.3182 152.633 73.1539 147.669 74.1317C142.705 75.1095 140.777 80.8354 140.407 84.8603C140.038 88.8852 140.9 89.6129 141.146 92.0506C141.392 94.4883 142.609 95.0977 143.781 95.5752C143.781 95.4797 143.325 93.2331 143.594 92.6191C143.863 92.0051 142.413 91.8368 141.88 90.2405C141.451 88.958 141.825 87.6345 142.226 87.4299C142.329 87.3745 142.44 87.3361 142.555 87.3162C143.04 87.2917 143.52 87.4258 143.922 87.6982L144.073 87.7619C144.257 87.8668 144.462 87.9305 144.674 87.9486C144.886 87.9667 145.099 87.9386 145.299 87.8665C146.352 87.439 146.32 86.3384 147.656 86.0973C148.991 85.8563 151.517 84.3282 152.251 83.2321C152.984 82.1361 153.659 81.463 155.245 82.3771C155.841 82.7175 156.315 83.236 156.6 83.8594C156.884 84.4829 156.966 85.1798 156.832 85.8517C156.782 86.111 156.914 86.1928 157.146 86.1565C157.721 86.0746 158.97 85.2105 159.95 84.2099C161.317 82.7728 162.721 80.7126 162.416 78.5796Z" fill="#A9A8E1"/>
<path d="M237.573 89.3674C237.386 91.0774 235.293 94.7339 233.789 96.1393C233.789 96.1393 233.976 96.2075 234.281 96.2939C233.819 96.7433 233.299 97.1301 232.736 97.4445C231.964 97.8976 231.078 98.1217 230.183 98.0903C230.028 98.0903 229.892 98.0539 229.727 98.0312C227.421 97.6901 226.017 95.83 225.233 93.4469C224.748 91.8744 224.481 90.2433 224.439 88.5988C224.439 88.4123 224.439 88.2167 224.439 88.0348C224.38 83.6142 224.895 79.5392 226.263 77.7246C226.263 77.7246 226.263 77.6928 226.295 77.6882C226.462 77.857 226.645 78.0093 226.842 78.143C229.468 80.0941 231.601 79.6666 232.517 81.2538C233.433 82.8411 235.394 84.1236 236.62 85.2788C237.846 86.4339 237.75 87.6619 237.573 89.3674Z" fill="#ECB7B0"/>
<path d="M277.41 130.417C269.998 118.138 260.302 106.681 249.954 103.584C244.161 101.864 238.227 100.657 232.221 99.9777C231.738 101.192 230.68 101.915 229.809 101.369C229.29 101.046 229.258 100.432 229.354 99.7094C224.021 99.2318 218.65 99.3844 213.353 100.164C201.218 102.115 193.232 104.794 189.485 102.356C185.738 99.9186 188.751 90.8136 190.547 85.4516C192.343 80.0895 204.017 57.7591 204.017 57.7591L197.831 53.3704C194.417 56.2128 186.435 66.7368 182.036 75.0459C177.637 83.355 174.132 94.0108 175.271 102.465C176.411 110.92 180.632 116.428 191.135 117.574C201.638 118.72 210.039 116.928 210.691 118.483C211.343 120.039 210.395 125.032 209.415 137.466C208.435 149.9 207.664 167.888 207.664 167.888L207.865 167.965C209.433 168.583 220.578 172.808 233.392 173.336C245.947 173.85 255.018 171.294 256.609 170.812C256.769 170.766 256.855 170.735 256.855 170.735C256.855 170.735 253.774 153.748 252.666 144.397C251.558 135.047 248.787 123.263 251.153 123.427C253.518 123.591 261.095 130.904 266.223 140.254C271.351 149.605 269.729 154.076 267.773 160.333C265.817 166.591 258.319 176.251 258.319 176.251C258.319 176.251 258.346 176.497 258.396 176.893C258.569 178.225 259.048 181.309 259.969 182.873L260.142 182.773C261.733 181.818 274.205 174.132 278.855 164.991C283.851 155.208 284.826 142.692 277.41 130.417Z" fill="#FDC130"/>
<path d="M230.179 98.0903C230.026 98.0791 229.873 98.0578 229.723 98.0266C229.604 98.6042 229.445 99.1909 229.358 99.7184C229.244 100.442 229.276 101.056 229.814 101.378C230.685 101.924 231.742 101.201 232.225 99.9868C232.289 99.8393 232.341 99.6873 232.38 99.532C232.544 98.8506 232.662 98.1594 232.736 97.4626C231.961 97.9107 231.074 98.1285 230.179 98.0903Z" fill="#ECB7B0"/>
<path d="M226.701 306.754C226.553 306.47 226.455 306.162 226.409 305.845C224.284 306.445 220.806 307.487 220.939 309.32C221.103 311.348 229.331 309.724 232.098 309.32L234.3 308.828L233.807 305.645C233.807 307.055 233.766 307.855 233.766 307.855C231.095 308.446 227.065 306.754 226.701 306.754Z" fill="#3A28B1"/>
<path d="M297.121 305.718L297.212 306.141C297.212 306.141 297.577 306.755 296.478 307.846C295.379 308.938 291.222 307.846 291.222 307.846C292.798 309.034 294.445 310.124 296.154 311.112C298.27 312.253 302.509 311.648 302.751 310.325C302.938 309.261 298.757 306.677 297.121 305.718Z" fill="#3A28B1"/>
<path d="M238.129 76.6285C235.681 74.068 228.738 68.8242 225.52 72.3034C224.608 73.3039 224.253 75.778 226.272 77.6882C226.445 77.852 226.63 78.004 226.824 78.143C229.449 80.094 231.583 79.6665 232.504 81.2538C233.424 82.841 235.371 84.1281 236.606 85.2787C237.842 86.4293 237.773 87.6527 237.586 89.3718C237.399 91.091 235.307 94.7384 233.798 96.1437C233.798 96.1437 233.99 96.2165 234.295 96.2984C235.266 96.5667 237.445 96.9351 238.749 95.3888C240.053 93.8425 239.802 93.5969 239.765 92.5736C238.694 92.9056 237.454 92.8829 236.962 92.4326C236.811 92.278 237.112 91.523 237.632 90.7135C238.033 90.0405 238.589 89.4729 239.255 89.058C239.468 88.9296 239.708 88.8532 239.956 88.8351C240.204 88.8169 240.452 88.8574 240.682 88.9534C241.411 87.589 242.336 86.2519 242.414 84.4055C242.523 81.6267 240.577 79.189 238.129 76.6285Z" fill="#F44234"/>
<path d="M240.668 88.9627C240.439 88.8667 240.19 88.8261 239.942 88.8443C239.694 88.8625 239.454 88.9389 239.241 89.0673C238.576 89.4822 238.019 90.0498 237.618 90.7228C237.099 91.5141 236.798 92.2873 236.948 92.4419C237.44 92.8967 238.68 92.8967 239.752 92.5829C240.663 92.3054 241.461 91.7688 241.543 91.0093C241.657 90.0133 241.283 89.2492 240.668 88.9627Z" fill="#ECB7B0"/>
<path d="M211.101 23.1218C211.025 23.1654 210.96 23.2258 210.911 23.2983C210.862 23.3709 210.831 23.4536 210.819 23.5403C210.627 24.841 214.192 27.9745 217.287 30.8443C220.788 34.096 224.458 36.3018 225.52 35.0738C226.582 33.8459 214.684 20.9206 211.101 23.1218Z" fill="#FDB001"/>
<path d="M204.277 27.92C206.005 25.5005 207.167 27.4106 207.673 28.6477C208.001 28.014 208.334 27.4076 208.672 26.8285C208.115 25.737 206.752 23.7632 204.286 24.1816C200.913 24.7501 198.93 31.6993 205.134 34.8465C205.326 34.187 205.544 33.5321 205.781 32.8909C205.034 32.4998 202.194 30.8307 204.277 27.92Z" fill="#FDB001"/>
<path d="M222.625 39.5947C222.169 40.2633 221.714 40.8863 221.258 41.4594C222.083 41.6413 223.081 42.0916 223.154 43.2013C223.222 44.9158 220.446 46.0392 218.655 44.4519C218 45.1125 217.294 45.7208 216.544 46.2711C217.538 47.4081 223.975 50.2506 226.5 46.2711C228.811 42.6419 226.527 39.8267 222.625 39.5947Z" fill="#FDB001"/>
<path d="M205.754 58.2866C205.713 58.3549 205.667 58.4203 205.617 58.4822C205.673 58.425 205.72 58.3589 205.754 58.2866Z" fill="#3A28B1"/>
<path d="M206.146 45.3887L202.586 50.1913C202.586 50.1913 197.736 50.9281 196.632 52.4062C197.973 51.0418 206.242 55.0531 205.932 57.7682C206.301 56.2537 206.333 52.8791 205.043 51.3146L208.845 47.1078C208.435 46.8986 208.065 46.6894 207.732 46.5393C207.136 46.2583 206.598 45.868 206.146 45.3887Z" fill="#E99B00"/>
<path d="M217.287 30.8443C214.192 27.9745 210.627 24.841 210.819 23.5403C210.139 24.4817 209.405 25.6051 208.685 26.8375C208.348 27.4197 208.015 28.0261 207.687 28.6567C206.97 30.0251 206.341 31.4379 205.804 32.8863C205.567 33.5276 205.348 34.1825 205.157 34.8419C204.965 35.5014 204.81 36.079 204.674 36.7066C203.762 40.7452 204.546 43.7059 206.16 45.3977C206.612 45.877 207.15 46.2673 207.746 46.5483C208.079 46.6984 208.448 46.9076 208.858 47.1168C210.559 47.9764 212.993 48.8814 216.562 46.2891C217.313 45.7388 218.018 45.1305 218.673 44.4699C219.604 43.5289 220.473 42.5293 221.276 41.4774C221.732 40.9043 222.188 40.2813 222.643 39.6127C223.555 38.3029 224.517 36.8112 225.538 35.0921C224.458 36.2927 220.788 34.1097 217.287 30.8443Z" fill="#FDC130"/>
<path d="M205.932 57.759C205.89 57.9374 205.831 58.1111 205.754 58.2775C205.849 58.1189 205.909 57.9423 205.932 57.759Z" fill="#261D98"/>
<path d="M196.514 52.5836C196.55 52.5221 196.589 52.4629 196.632 52.4062C196.584 52.4591 196.544 52.5189 196.514 52.5836Z" fill="#261D98"/>
<path d="M196.632 52.4062C196.589 52.4628 196.55 52.5221 196.514 52.5836C196.167 53.3522 203.315 61.2247 205.631 58.4959C205.681 58.434 205.727 58.3687 205.768 58.3004C205.844 58.1339 205.904 57.9602 205.946 57.7819C206.242 55.0531 197.973 51.0509 196.632 52.4062Z" fill="#CB8700"/>
<path d="M200.425 52.5518C201.46 52.097 199.203 47.4263 198.105 47.6082C197.006 47.7901 199.263 53.0385 200.425 52.5518Z" fill="#ECB7B0"/>
<path d="M201.893 51.6376C202.704 51.2965 201.524 47.2488 200.302 45.9663C199.08 44.6838 198.479 46.8122 199.477 48.7997C200.475 50.7871 201.159 51.9377 201.893 51.6376Z" fill="#ECB7B0"/>
<path d="M202.622 50.6051C203.794 50.6961 203.283 45.1476 201.711 45.375C200.138 45.6024 201.642 50.5278 202.622 50.6051Z" fill="#ECB7B0"/>
<path d="M203.84 50.0777C204.51 49.9776 204.496 45.8936 203.128 45.8936C201.761 45.8936 203.165 50.1868 203.84 50.0777Z" fill="#ECB7B0"/>
<path d="M204.017 51.7876C204.017 52.9428 208.662 52.5153 208.722 50.9281C208.781 49.3408 204.017 50.6279 204.017 51.7876Z" fill="#ECB7B0"/>
<path d="M215.578 32.8774C213.239 31.6085 209.41 31.8905 208.672 35.7608C207.933 39.6311 212.259 44.0153 216.54 41.9415C220.82 39.8676 218.755 34.6011 215.578 32.8774Z" fill="#A9A8E1"/>
<path d="M211.484 35.415C211.138 36.4656 214.174 36.029 214.174 36.029C214.174 36.029 211.179 39.5036 211.79 40.1767C212.4 40.8498 215.76 35.415 215.76 35.415C215.76 35.415 211.73 34.6828 211.484 35.415Z" fill="#13005E"/>
<path d="M237.678 50.7825C237.636 50.6006 239.588 49.3772 239.588 49.3772L241.055 56.2673L239.651 56.572L237.678 50.7825Z" fill="#A9A8E1"/>
<path d="M258.961 61.875L260.794 60.7017L263.725 64.3764L263.237 65.7772L258.961 61.875Z" fill="#13005E"/>
<path d="M303.936 79.0662H306.498L306.926 84.2508C306.926 84.2508 305.153 84.551 305.217 84.2508C305.281 83.9507 303.936 79.0662 303.936 79.0662Z" fill="#3A28B1"/>
<path d="M274.36 31.3356V33.3457L279.306 31.945V28.8933L274.36 31.3356Z" fill="#3A28B1"/>
<path d="M245.641 21.6394H247.592L249.612 15.3633C249.612 15.3633 247.045 13.5441 247.105 13.7169C247.164 13.8897 245.641 21.6394 245.641 21.6394Z" fill="#FDC130"/>
<path d="M207.664 6.522C208.227 6.80023 208.766 7.12583 209.273 7.49526L209.579 0.000244141L206.388 0.427752L207.664 6.522Z" fill="#F44234"/>
<path d="M190.219 34.8464L192.357 35.0875L190.219 40.7224L187.839 40.2267L190.219 34.8464Z" fill="#13005E"/>
<path d="M173.657 51.3147L174.638 53.3613L169.623 58.0275C169.623 58.0275 169.135 54.8439 169.135 54.6711C169.135 54.4983 173.657 51.3147 173.657 51.3147Z" fill="#3A28B1"/>
<path d="M196.418 313.981C191.805 314.741 186.818 319.252 189.972 325.401C193.127 331.55 203.853 332.973 207.55 325.497C211.247 318.02 202.682 312.953 196.418 313.981Z" fill="#FFCF71"/>
<path d="M193.492 321.899C194.143 323.718 197.877 319.862 197.877 319.862C197.877 319.862 197.485 327.889 199.058 328.157C200.63 328.426 199.413 317.297 199.413 317.297C199.413 317.297 193.036 320.63 193.492 321.899Z" fill="#C88500"/>
<path d="M56.0518 98.2677C56.0518 98.2677 56.0928 98.195 56.1657 98.0494C56.2747 97.8308 56.4028 97.6223 56.5487 97.4264C56.7744 97.1078 57.0629 96.8386 57.3966 96.635C57.62 96.4963 57.8699 96.4053 58.1304 96.3678C58.3908 96.3302 58.6563 96.3469 58.91 96.4167C59.2053 96.4975 59.4741 96.6543 59.6895 96.8715C59.7807 96.9989 59.8901 97.1171 59.9767 97.249C60.0633 97.3809 60.1089 97.531 60.1727 97.6765C60.3697 98.2908 60.4831 98.9286 60.51 99.573C60.5511 100.232 60.5511 100.906 60.6012 101.592C60.6242 101.934 60.6653 102.274 60.7243 102.611C60.7517 102.776 60.796 102.937 60.8565 103.093C60.8785 103.15 60.9185 103.198 60.9704 103.23C60.9704 103.23 61.0297 103.23 61.0206 103.23C61.0115 103.23 61.0981 103.17 61.1072 103.143C61.3864 102.529 61.5708 101.875 61.6542 101.206C61.7591 100.537 61.8229 99.8686 61.8685 99.2183C61.8521 98.5649 61.9367 97.913 62.1192 97.2854C62.3321 96.6917 62.7319 96.1827 63.2588 95.8346C63.4988 95.6595 63.7856 95.5595 64.0827 95.5474C64.3797 95.5353 64.6737 95.6115 64.9273 95.7664C65.2777 96.0195 65.5265 96.3886 65.6293 96.8078C65.7032 97.0481 65.7416 97.2978 65.7432 97.5492C65.7432 97.722 65.7432 97.8129 65.7432 97.8129C65.7458 97.8288 65.7451 97.8451 65.7412 97.8607C65.7372 97.8763 65.7301 97.8909 65.7203 97.9037C65.7105 97.9165 65.6982 97.9271 65.6841 97.935C65.67 97.9428 65.6544 97.9477 65.6384 97.9494C65.6227 97.9519 65.6067 97.9512 65.5913 97.9472C65.5759 97.9433 65.5615 97.9361 65.5491 97.9263C65.5366 97.9164 65.5264 97.9041 65.519 97.89C65.5116 97.876 65.5073 97.8606 65.5062 97.8448C65.5062 97.8448 65.4014 97.4991 65.1643 96.9852C65.0399 96.7042 64.8414 96.4621 64.5899 96.2848C64.4313 96.1953 64.2503 96.1533 64.0684 96.1638C63.8865 96.1743 63.7115 96.2368 63.5643 96.344C63.1413 96.623 62.81 97.02 62.6115 97.4855C62.4956 97.7473 62.4189 98.0246 62.3836 98.3087C62.3426 98.6179 62.3061 98.9363 62.2651 99.2592C62.1785 99.9095 62.0554 100.583 61.905 101.256C61.7972 101.964 61.5674 102.649 61.2257 103.28C61.1938 103.33 61.1528 103.343 61.1254 103.375C61.0596 103.401 60.9862 103.401 60.9203 103.375C60.8679 103.355 60.8204 103.324 60.7811 103.284C60.7417 103.244 60.7115 103.196 60.6924 103.143C60.622 102.975 60.5715 102.8 60.5419 102.62C60.482 102.277 60.4394 101.931 60.4143 101.583C60.3596 100.896 60.3003 100.219 60.2502 99.5684C60.1995 98.9561 60.0661 98.3533 59.8536 97.7766C59.7989 97.6492 59.7351 97.5264 59.6713 97.4036C59.6074 97.2808 59.5072 97.199 59.4297 97.1035C59.262 96.9303 59.046 96.8115 58.8097 96.7624L58.6228 96.7169C58.6228 96.7169 58.5271 96.6896 58.559 96.7169H58.4769H58.1442C57.9459 96.759 57.7553 96.8311 57.5789 96.9306C57.2775 97.1039 57.0115 97.3323 56.7948 97.6037C56.5927 97.8433 56.4127 98.1005 56.2569 98.3723C56.2493 98.3863 56.239 98.3985 56.2266 98.4084C56.2141 98.4183 56.1998 98.4255 56.1845 98.4298C56.1692 98.434 56.1532 98.4351 56.1375 98.4331C56.1217 98.431 56.1065 98.4258 56.0928 98.4178C56.0781 98.4117 56.0649 98.4024 56.0542 98.3907C56.0435 98.3789 56.0354 98.365 56.0307 98.3498C56.0259 98.3347 56.0245 98.3187 56.0266 98.3029C56.0286 98.2872 56.0341 98.272 56.0427 98.2586L56.0518 98.2677Z" fill="#DC847F"/>
<path d="M60.8155 106.495C60.5325 106.494 60.257 106.405 60.0269 106.24L59.9858 106.213C59.9702 106.207 59.9561 106.198 59.9443 106.187C59.9326 106.175 59.9236 106.161 59.918 106.145C59.9123 106.129 59.9102 106.113 59.9116 106.096C59.9131 106.08 59.9182 106.064 59.9266 106.049C59.9412 106.021 59.9667 105.999 59.9974 105.988C60.0281 105.978 60.0616 105.981 60.0907 105.995L60.1636 106.04C60.3817 106.19 60.6418 106.267 60.9065 106.259C61.1711 106.252 61.4266 106.161 61.636 105.999C61.6499 105.991 61.6654 105.985 61.6817 105.982C61.6979 105.98 61.7145 105.981 61.7304 105.985C61.7462 105.989 61.761 105.997 61.7738 106.007C61.7866 106.017 61.7971 106.03 61.8047 106.045C61.8127 106.058 61.8179 106.074 61.82 106.089C61.822 106.105 61.8209 106.121 61.8167 106.136C61.8124 106.152 61.8051 106.166 61.7952 106.178C61.7853 106.191 61.773 106.201 61.7591 106.209C61.4769 106.389 61.1504 106.488 60.8155 106.495Z" fill="#DA4F4F"/>
<path d="M44.8378 168.966C41.3687 177.261 36.3407 193.584 34.5218 214.468C34.4443 214.436 34.3668 214.395 34.2939 214.368C36.1173 193.511 41.1317 177.179 44.6099 168.865C44.6837 168.903 44.7598 168.937 44.8378 168.966Z" fill="#3A28B1"/>
<path d="M54.9531 196.69C54.1873 203.034 53.1297 210.074 52.3411 215.218C52.1041 216.714 51.8853 218.092 51.7348 219.225C51.6536 219.215 51.5729 219.202 51.4932 219.184C51.6391 218.192 51.8306 216.883 52.0995 215.186C52.879 210.047 53.9457 203.002 54.707 196.667C55.9196 186.53 55.3771 177.224 54.9121 171.585L55.1537 171.612C55.6324 177.27 56.1657 186.561 54.9531 196.69Z" fill="#3A28B1"/>
<path d="M69.6134 219.539L69.3581 219.566C70.4777 210.56 70.3458 201.444 68.9661 192.474C67.2658 181.85 65.4788 175.06 64.558 171.949C64.6384 171.942 64.7192 171.942 64.7996 171.949C65.7113 175.101 67.5074 181.891 69.1986 192.456C70.5814 201.422 70.721 210.535 69.6134 219.539Z" fill="#3A28B1"/>
<path d="M80.1983 216.983C80.1198 217.022 80.0392 217.057 79.9567 217.087C79.591 210.467 78.7516 203.882 77.4449 197.381C75.5759 187.544 73.8255 180.954 72.5445 176.133C72.0066 174.105 71.5507 172.39 71.1769 170.848L71.414 170.785C71.7604 172.322 72.2254 174.036 72.7588 176.078C74.0397 180.895 75.7902 187.498 77.6683 197.336C78.9776 203.816 79.823 210.382 80.1983 216.983Z" fill="#3A28B1"/>
<path d="M148.257 86.9886C148.257 86.9886 148.335 86.9386 148.494 86.8568C148.729 86.7443 148.977 86.6632 149.233 86.6157C149.661 86.5328 150.105 86.5935 150.496 86.7885C150.75 86.9305 150.951 87.1528 151.065 87.4207C151.171 87.6931 151.22 87.9839 151.211 88.2757C151.211 89.3718 151.134 90.627 151.097 91.9778C151.097 92.6508 151.061 93.3421 151.097 94.0516C151.105 94.4044 151.131 94.7566 151.175 95.1067C151.175 95.1932 151.207 95.2796 151.225 95.3569C151.243 95.4342 151.325 95.4888 151.225 95.4797C151.339 95.4387 151.425 95.2705 151.503 95.1249C151.76 94.4636 151.95 93.7779 152.068 93.0784C152.2 92.3871 152.314 91.714 152.406 91.0318C152.455 90.3603 152.609 89.7006 152.861 89.0762C153.103 88.4821 153.515 87.9726 154.047 87.6117C154.316 87.4406 154.617 87.3233 154.931 87.2661C155.094 87.2436 155.26 87.2568 155.417 87.3047C155.575 87.3526 155.72 87.4341 155.843 87.5435C156.185 87.847 156.413 88.2576 156.49 88.7078C156.546 88.9616 156.57 89.2212 156.563 89.4809C156.568 89.5718 156.568 89.6629 156.563 89.7538C156.562 89.7701 156.557 89.786 156.55 89.8004C156.542 89.8148 156.531 89.8274 156.519 89.8373C156.506 89.8472 156.491 89.8542 156.475 89.8579C156.459 89.8615 156.442 89.8617 156.426 89.8584C156.404 89.8565 156.382 89.8488 156.364 89.836C156.346 89.8233 156.331 89.8059 156.321 89.7856C156.321 89.7856 156.289 89.7038 156.235 89.5446C156.18 89.3854 156.089 89.1626 155.961 88.9033C155.828 88.6228 155.629 88.378 155.382 88.1893C155.25 88.1235 155.111 88.0716 154.967 88.0347C154.869 88.01 154.766 88.0062 154.665 88.0234C154.565 88.0406 154.469 88.0785 154.384 88.1347C153.93 88.4128 153.566 88.8154 153.335 89.2945C153.068 89.8699 152.892 90.4838 152.816 91.1136C152.674 91.7776 152.547 92.478 152.36 93.1557C152.216 93.8681 152.005 94.5654 151.731 95.2386C151.657 95.4326 151.517 95.5939 151.334 95.6934C151.288 95.7055 151.239 95.7012 151.196 95.6813C151.153 95.6614 151.118 95.6271 151.097 95.5843C151.071 95.538 151.05 95.4893 151.033 95.4388C151.006 95.3432 150.988 95.2523 150.97 95.1613C150.918 94.804 150.886 94.4442 150.874 94.0835C150.851 93.3694 150.833 92.669 150.815 91.9959C150.815 90.6316 150.774 89.3854 150.755 88.3076C150.783 88.1059 150.752 87.9007 150.668 87.7155C150.583 87.5304 150.447 87.373 150.277 87.2615C149.972 87.1388 149.642 87.0905 149.315 87.1205C149.084 87.1311 148.854 87.1554 148.627 87.1933L148.371 87.2388C148.343 87.2459 148.313 87.2426 148.287 87.2297C148.261 87.2167 148.24 87.1949 148.228 87.168C148.217 87.1412 148.215 87.1112 148.224 87.0833C148.232 87.0554 148.251 87.0316 148.276 87.0159L148.257 86.9886Z" fill="#DC847F"/>
<path d="M150.682 98.4177C150.632 98.4244 150.582 98.4244 150.532 98.4177C150.375 98.3861 150.225 98.3225 150.094 98.231C149.962 98.1394 149.85 98.0219 149.766 97.8856C149.754 97.8636 149.739 97.8437 149.721 97.8264C149.701 97.8029 149.691 97.773 149.693 97.7425C149.694 97.7121 149.707 97.6833 149.729 97.6617C149.75 97.6401 149.779 97.6274 149.81 97.6259C149.84 97.6244 149.87 97.6343 149.894 97.6536C149.919 97.6819 149.942 97.7123 149.962 97.7446C150.028 97.8568 150.115 97.9548 150.219 98.0329C150.324 98.111 150.442 98.1676 150.568 98.1994C150.934 98.2129 151.292 98.086 151.567 97.8446C151.58 97.835 151.595 97.828 151.611 97.8241C151.627 97.8202 151.643 97.8196 151.659 97.8221C151.675 97.8246 151.691 97.8303 151.705 97.8389C151.718 97.8475 151.731 97.8587 151.74 97.8719C151.75 97.8846 151.756 97.8992 151.76 97.9146C151.764 97.9301 151.765 97.9461 151.762 97.9619C151.76 97.9776 151.754 97.9926 151.745 98.0061C151.737 98.0195 151.726 98.0311 151.713 98.0402C151.416 98.2686 151.057 98.4004 150.682 98.4177Z" fill="#DA4F4F"/>
<path d="M143.261 90.7408C143.229 90.7396 143.199 90.7261 143.177 90.7032C143.155 90.6803 143.143 90.6498 143.143 90.618C143.143 90.386 143.061 89.8448 142.308 88.7669L142.276 88.7215C142.259 88.6942 142.253 88.6614 142.26 88.6299C142.267 88.5984 142.286 88.5709 142.313 88.5532C142.34 88.536 142.373 88.5301 142.405 88.537C142.436 88.5438 142.464 88.5627 142.482 88.5896L142.504 88.626C143.102 89.481 143.416 90.1677 143.384 90.6271C143.384 90.6426 143.38 90.6579 143.373 90.672C143.367 90.6861 143.358 90.6988 143.346 90.7094C143.335 90.7199 143.321 90.7281 143.307 90.7335C143.292 90.7389 143.277 90.7414 143.261 90.7408Z" fill="#DC847F"/>
<path d="M225.105 83.4188C225.165 83.3454 225.236 83.281 225.315 83.2277C225.547 83.0618 225.811 82.9457 226.09 82.8866C226.536 82.7797 227.006 82.8345 227.416 83.0413C227.68 83.1939 227.897 83.4158 228.043 83.6829C228.189 83.9499 228.26 84.2518 228.246 84.5557C228.214 85.1288 228.219 85.7382 228.123 86.3977C228.027 87.0571 227.918 87.7302 227.813 88.4442C227.673 89.1585 227.571 89.8796 227.507 90.6045C227.446 90.9658 227.446 91.3348 227.507 91.696C227.53 91.8643 227.617 92.0508 227.708 92.0735C227.799 92.0962 227.94 91.9461 228.027 91.8006C228.342 91.1275 228.575 90.419 228.72 89.6904C228.906 88.9701 229.15 88.2659 229.449 87.5847C229.713 86.918 230.091 86.3023 230.566 85.7655C230.808 85.499 231.103 85.2853 231.432 85.1379C231.771 85.0004 232.145 84.9764 232.499 85.0697C232.556 85.0782 232.611 85.095 232.663 85.1197L232.759 85.1652L232.946 85.2607C233.068 85.3188 233.187 85.3841 233.301 85.4562C233.53 85.6341 233.734 85.8422 233.908 86.0748C234.15 86.4339 234.319 86.8373 234.404 87.2618C234.459 87.5265 234.485 87.7964 234.482 88.0668C234.482 88.2532 234.482 88.3578 234.482 88.3578C234.475 88.3892 234.457 88.4169 234.431 88.4354C234.405 88.454 234.373 88.462 234.341 88.4579C234.315 88.4561 234.291 88.4457 234.271 88.4284C234.252 88.411 234.24 88.3878 234.236 88.3624C234.236 88.3624 234.236 88.2714 234.181 88.1031C234.135 87.8639 234.066 87.6294 233.976 87.4027C233.857 87.0552 233.676 86.7317 233.443 86.4477C233.329 86.2612 233.151 86.1884 233.014 86.0247C232.904 85.9567 232.79 85.8959 232.672 85.8428L232.485 85.7518L232.394 85.7018C232.444 85.7246 232.358 85.7018 232.349 85.7018C232.098 85.6427 231.835 85.6572 231.593 85.7436C231.35 85.8299 231.138 85.9844 230.981 86.1885C230.531 86.6646 230.153 87.204 229.86 87.7893C229.53 88.4307 229.246 89.0949 229.012 89.7768C228.826 90.5196 228.559 91.2395 228.214 91.9234C228.095 92.0689 227.968 92.3054 227.658 92.2781C227.38 92.1735 227.343 91.9234 227.289 91.746C227.225 91.3636 227.225 90.9733 227.289 90.5909C227.33 89.8314 227.444 89.1128 227.526 88.4033C227.608 87.6938 227.672 87.0389 227.735 86.3886C227.799 85.7382 227.735 85.1242 227.781 84.5694C227.792 84.3544 227.742 84.1407 227.638 83.9521C227.535 83.7634 227.38 83.6071 227.193 83.5006C226.872 83.3661 226.52 83.3235 226.176 83.3778C225.945 83.4042 225.717 83.4561 225.497 83.5325C225.347 83.587 225.242 83.6371 225.251 83.6325C225.221 83.647 225.187 83.6494 225.156 83.6392C225.124 83.629 225.098 83.6071 225.082 83.5779C225.071 83.5594 225.065 83.5382 225.065 83.5165C225.065 83.4949 225.071 83.4736 225.082 83.4551L225.105 83.4188Z" fill="#DC847F"/>
<path d="M238.457 91.5368C238.432 91.5359 238.408 91.5262 238.389 91.5095C238.376 91.5005 238.364 91.4889 238.356 91.4754C238.347 91.462 238.342 91.4469 238.339 91.4312C238.336 91.4155 238.337 91.3994 238.341 91.384C238.345 91.3685 238.352 91.354 238.361 91.3413C238.735 90.8271 239.223 90.4067 239.788 90.1133C239.803 90.1066 239.819 90.103 239.835 90.1026C239.851 90.1022 239.867 90.105 239.882 90.111C239.896 90.117 239.91 90.1259 239.921 90.1372C239.933 90.1486 239.942 90.1621 239.948 90.177C239.96 90.2066 239.96 90.2398 239.948 90.2695C239.936 90.2993 239.913 90.3232 239.884 90.3362C239.362 90.6133 238.91 91.0052 238.562 91.4823C238.55 91.4994 238.535 91.5134 238.516 91.5229C238.498 91.5325 238.478 91.5372 238.457 91.5368Z" fill="#DC847F"/>
<path d="M227.722 95.4617H227.667C227.266 95.4253 227.015 95.0069 226.878 94.7795C226.858 94.7404 226.835 94.7024 226.81 94.6658C226.796 94.6597 226.783 94.6506 226.773 94.6391C226.763 94.6276 226.755 94.614 226.751 94.5992C226.746 94.5844 226.745 94.5689 226.748 94.5537C226.75 94.5385 226.756 94.5239 226.764 94.5112C226.781 94.4829 226.807 94.4616 226.838 94.4515C226.869 94.4414 226.903 94.4432 226.933 94.4566C226.992 94.4884 227.02 94.543 227.088 94.6567C227.211 94.8568 227.412 95.1934 227.69 95.2161C227.886 95.2388 228.105 95.1024 228.346 94.825C228.369 94.8022 228.4 94.7894 228.433 94.7894C228.465 94.7894 228.496 94.8022 228.519 94.825C228.541 94.8485 228.553 94.8794 228.553 94.9114C228.553 94.9434 228.541 94.9743 228.519 94.9978C228.427 95.1272 228.308 95.2355 228.171 95.3155C228.033 95.3955 227.88 95.4453 227.722 95.4617Z" fill="#DA4F4F"/>
<path d="M324.098 110.433L324.217 110.197C324.341 109.966 324.494 109.752 324.673 109.56C324.96 109.228 325.349 108.999 325.78 108.91C325.925 108.901 326.069 108.901 326.213 108.91C326.37 108.954 326.522 109.012 326.669 109.083C326.77 109.16 326.87 109.219 326.979 109.315C327.098 109.421 327.206 109.538 327.303 109.665C327.642 110.193 327.852 110.792 327.918 111.416C328.011 112.074 328.066 112.738 328.082 113.403C328.082 114.09 328.082 114.799 328.16 115.504C328.166 115.843 328.245 116.177 328.392 116.482C328.538 116.732 328.921 116.605 329.012 116.287C329.19 115.603 329.244 114.893 329.172 114.19C329.172 113.467 329.094 112.78 329.103 112.066C329.092 111.376 329.232 110.691 329.514 110.06C329.653 109.758 329.855 109.489 330.106 109.271C330.358 109.053 330.653 108.891 330.972 108.796C331.12 108.751 331.274 108.727 331.428 108.723C331.516 108.719 331.605 108.719 331.693 108.723L331.875 108.755C332.142 108.791 332.398 108.883 332.627 109.023C332.972 109.254 333.271 109.547 333.507 109.888C333.708 110.168 333.872 110.474 333.995 110.797C334 110.813 334.001 110.829 334 110.845C333.999 110.861 333.994 110.877 333.986 110.892C333.979 110.906 333.968 110.919 333.956 110.929C333.943 110.939 333.928 110.947 333.913 110.952C333.886 110.96 333.858 110.959 333.833 110.949C333.807 110.939 333.785 110.921 333.771 110.897C333.597 110.624 333.399 110.367 333.179 110.129C332.948 109.861 332.676 109.632 332.372 109.451C332.195 109.345 331.995 109.282 331.788 109.269L331.606 109.242C331.633 109.242 331.515 109.242 331.478 109.269C331.361 109.275 331.245 109.295 331.132 109.328C330.881 109.396 330.647 109.518 330.448 109.685C330.248 109.852 330.088 110.061 329.979 110.297C329.703 110.866 329.548 111.485 329.523 112.116C329.482 112.766 329.496 113.48 329.491 114.204C329.531 114.947 329.449 115.692 329.249 116.409C329.207 116.507 329.15 116.597 329.081 116.678C329.005 116.76 328.909 116.821 328.803 116.855C328.69 116.893 328.569 116.894 328.456 116.857C328.343 116.82 328.246 116.747 328.178 116.65C327.998 116.31 327.897 115.934 327.882 115.55C327.832 114.831 327.786 114.122 327.736 113.44C327.692 112.792 327.61 112.149 327.49 111.511C327.4 110.964 327.197 110.442 326.893 109.979C326.826 109.892 326.752 109.81 326.674 109.733C326.576 109.654 326.474 109.582 326.368 109.515L326.127 109.433H325.871C325.552 109.517 325.256 109.673 325.005 109.888C324.825 110.038 324.653 110.197 324.49 110.365L324.308 110.561C324.288 110.584 324.26 110.6 324.229 110.604C324.199 110.608 324.168 110.6 324.142 110.582C324.117 110.565 324.1 110.538 324.093 110.508C324.086 110.478 324.092 110.446 324.107 110.42L324.098 110.433Z" fill="#DC847F"/>
<path d="M329.377 119.925C329.077 119.919 328.779 119.87 328.493 119.779H328.461C328.445 119.776 328.43 119.77 328.417 119.761C328.404 119.752 328.393 119.74 328.385 119.726C328.377 119.712 328.371 119.697 328.37 119.681C328.368 119.665 328.369 119.649 328.374 119.634C328.376 119.618 328.382 119.603 328.391 119.589C328.401 119.576 328.412 119.564 328.426 119.556C328.44 119.548 328.456 119.543 328.472 119.541C328.488 119.54 328.505 119.542 328.52 119.548H328.566C329.336 119.784 329.746 119.679 329.933 119.548C329.961 119.531 329.994 119.526 330.026 119.533C330.057 119.541 330.085 119.561 330.102 119.588C330.117 119.616 330.122 119.649 330.114 119.681C330.107 119.712 330.088 119.739 330.061 119.757C329.853 119.874 329.616 119.933 329.377 119.925Z" fill="#DA4F4F"/>
<path d="M57.1868 105.476C56.531 104.501 55.9475 103.48 55.4409 102.42C55.4683 101.824 55.6597 101.338 56.2751 101.319C56.8311 101.359 57.3542 101.597 57.7479 101.991C58.1416 102.384 58.3795 102.907 58.4176 103.461C58.5225 104.685 58.0438 105.435 57.1868 105.476Z" fill="#F39E97"/>
<path d="M66.0897 100.769C65.7022 101.897 65.2235 103.102 64.7221 104.194C64.0292 104.366 63.277 103.684 63.5141 102.497C63.783 101.133 64.9272 99.9777 65.7706 100.414C65.9102 100.498 66.0214 100.622 66.0897 100.769Z" fill="#F39E97"/>
<path d="M56.8586 99.2455C56.4027 99.2137 57.3145 97.3581 58.4313 97.4764C59.5481 97.5946 59.9766 98.7589 59.6393 99.1091C59.302 99.4593 59.2746 98.0403 58.8598 97.9812C58.8598 97.9812 59.0421 99.0772 58.4951 99.2455C57.9481 99.4138 57.8524 98.1495 57.8524 98.1495C57.666 98.286 57.5015 98.4501 57.3646 98.6361C57.1367 98.9408 57.0729 99.2637 56.8586 99.2455Z" fill="#361410"/>
<path d="M62.8348 98.6908C62.4109 98.7271 63.1084 96.7852 64.1432 96.8033C65.1779 96.8215 65.5836 98.3133 65.2737 98.5861C64.9637 98.859 64.9272 97.4583 64.5124 97.3218C64.5124 97.3218 65.0457 98.4815 64.362 98.6862C63.6782 98.8909 63.4138 97.4855 63.4776 97.531C63.5414 97.5765 63.2132 98.6908 62.8348 98.6908Z" fill="#361410"/>
<path d="M145.531 96.4622C147.104 97.249 148.722 96.1166 148.544 94.2474C148.367 92.3782 146.999 91.5868 145.673 92.1507C144.346 92.7147 144.095 95.7527 145.531 96.4622Z" fill="#F39E97"/>
<path d="M147.811 89.249C147.478 89.1581 148.399 87.7255 149.52 87.8846C150.641 88.0438 150.728 89.8448 150.331 90.1268C149.935 90.4088 150.227 89.3355 149.953 88.8443C149.953 88.8443 150.044 90.0631 149.324 89.9221C148.604 89.7811 148.946 88.4304 148.946 88.4304C148.705 88.5257 148.485 88.6662 148.298 88.8443C148.089 89.0944 147.979 89.2945 147.811 89.249Z" fill="#361410"/>
<path d="M153.486 90.1768C153.135 90.0131 154.028 88.8124 154.803 89.1444C155.578 89.4764 155.756 90.8135 155.46 91.0318C155.163 91.2501 155.341 90.0949 155.004 89.8175C155.004 89.8175 155.081 90.8817 154.603 90.8817C154.124 90.8817 154.229 89.6492 154.229 89.6492C154.229 89.6492 154.033 89.7993 153.882 89.9449C153.732 90.0904 153.7 90.2769 153.486 90.1768Z" fill="#361410"/>
<path d="M155.824 93.4378C155.501 94.3246 155.118 95.2251 154.717 96.1393C154.467 96.7103 154.161 97.2556 153.805 97.7674C153.249 97.3763 152.565 95.5389 153.65 93.8198C154.475 92.5327 155.341 92.7783 155.824 93.4378Z" fill="#F39E97"/>
<path d="M226.167 90.959C226.245 92.3234 225.866 93.1238 225.255 93.4468C224.771 91.8743 224.504 90.2432 224.462 88.5986C225.296 88.7078 226.094 89.7402 226.167 90.959Z" fill="#F39E97"/>
<path d="M233.192 95.2024C232.134 95.8073 230.179 94.3883 230.913 92.1871C231.646 89.9859 233.803 90.1815 234.559 91.6869C235.316 93.1922 234.104 94.693 233.192 95.2024Z" fill="#F39E97"/>
<path d="M224.886 85.8155C224.508 85.7018 225.265 84.3556 226.254 84.6012C227.243 84.8467 227.708 86.052 227.339 86.6569C226.969 87.2617 226.883 85.2925 226.313 85.2925C226.313 85.2925 226.573 86.2976 225.962 86.4476C225.351 86.5977 225.552 85.3061 225.552 85.3061C225.552 85.3061 225.214 85.9246 224.886 85.8155Z" fill="#361410"/>
<path d="M230.589 88.0121C230.197 87.8847 231.004 86.4567 232.134 86.6477C233.265 86.8387 233.771 88.4669 233.42 88.858C233.069 89.2491 233.023 87.1934 232.102 87.1616C232.102 87.1616 232.458 88.3577 231.856 88.5578C231.255 88.7579 231.296 87.2844 231.282 87.3799C231.268 87.4754 230.826 88.0894 230.589 88.0121Z" fill="#361410"/>
<path d="M326.765 116.882C326.788 118.247 326.241 118.802 325.552 118.988C324.812 117.69 324.276 116.287 323.961 114.827C325.584 113.444 326.747 115.268 326.765 116.882Z" fill="#F39E97"/>
<path d="M335.978 115.973C335.919 116.332 335.841 116.701 335.75 117.083C335.596 117.759 335.343 118.409 334.998 119.011C334.807 119.117 334.598 119.185 334.382 119.211C332.732 119.429 331.884 118.133 331.975 116.332C332.067 114.531 333.493 113.385 334.829 113.908C335.381 114.126 335.823 115.004 335.978 115.973Z" fill="#F39E97"/>
<path d="M324.463 111.925C324.007 111.925 324.586 110.506 325.685 110.279C326.783 110.051 327.417 111.502 327.376 112.098C327.335 112.694 326.993 112.284 326.883 111.834C326.774 111.384 326.3 110.838 325.972 110.897C325.972 110.897 326.364 111.916 325.689 112.139C325.014 112.362 325.042 111.311 325.042 111.329C325.042 111.348 324.727 111.925 324.463 111.925Z" fill="#361410"/>
<path d="M330.188 111.88C329.6 111.789 330.453 110.088 331.656 110.01C332.86 109.933 333.648 111.83 333.243 112.016C332.837 112.202 332.659 110.37 331.688 110.652C331.688 110.652 332.039 111.816 331.428 112.048C330.817 112.28 330.699 111.325 330.699 111.325C330.699 111.325 330.471 111.925 330.188 111.88Z" fill="#361410"/>
<path d="M337.865 157.719C337.806 157.71 337.752 157.681 337.713 157.637C337.674 157.592 337.652 157.535 337.652 157.475C337.652 157.416 337.674 157.358 337.713 157.314C337.752 157.269 337.806 157.24 337.865 157.232C339.406 157.089 340.892 156.584 342.2 155.758C345.104 153.939 346.882 150.706 347.324 146.403C347.326 146.371 347.335 146.34 347.35 146.311C347.365 146.282 347.386 146.257 347.411 146.237C347.436 146.217 347.466 146.202 347.497 146.194C347.528 146.186 347.561 146.184 347.593 146.189C347.658 146.196 347.717 146.228 347.758 146.279C347.799 146.329 347.818 146.393 347.812 146.458C347.228 152.097 344.566 154.862 342.433 156.186C341.058 157.054 339.495 157.579 337.874 157.719H337.865Z" fill="#A9A8E1"/>
<path d="M311.384 230.799C311.384 230.864 311.359 230.925 311.314 230.971C311.269 231.017 311.207 231.044 311.143 231.045C311.11 231.045 311.078 231.04 311.048 231.027C311.018 231.015 310.99 230.997 310.967 230.974C310.944 230.951 310.926 230.924 310.914 230.894C310.902 230.864 310.896 230.832 310.897 230.799C310.518 207.364 318.724 187.626 322.375 180.021L322.854 180.149C319.248 187.644 311.006 207.386 311.384 230.799Z" fill="#3A28B1"/>
<path d="M328.78 219.311C328.78 225.988 328.78 233.533 328.743 242.506C328.744 242.538 328.738 242.57 328.726 242.6C328.714 242.63 328.695 242.657 328.672 242.679C328.649 242.702 328.622 242.719 328.592 242.731C328.562 242.743 328.529 242.748 328.497 242.747C328.465 242.747 328.434 242.741 328.404 242.73C328.374 242.718 328.348 242.7 328.325 242.677C328.302 242.655 328.285 242.628 328.273 242.599C328.261 242.569 328.255 242.537 328.256 242.506C328.301 233.533 328.301 225.988 328.292 219.311C328.292 201.533 328.292 191.037 329.413 181.145C329.573 181.145 329.737 181.172 329.901 181.186C328.762 191.055 328.771 201.542 328.78 219.311Z" fill="#3A28B1"/>
<path d="M345.605 230.781C345.608 230.813 345.605 230.846 345.596 230.876C345.586 230.907 345.57 230.935 345.549 230.96C345.529 230.985 345.503 231.005 345.474 231.019C345.446 231.034 345.414 231.043 345.382 231.045H345.359C345.298 231.045 345.239 231.022 345.195 230.981C345.15 230.94 345.122 230.883 345.118 230.822C343.912 214.112 341.601 197.5 338.198 181.095L338.681 181.04C342.097 197.448 344.41 214.066 345.605 230.781Z" fill="#3A28B1"/>
<path d="M359.235 210.593C359.238 210.658 359.214 210.722 359.17 210.771C359.126 210.819 359.064 210.849 358.998 210.852C358.967 210.853 358.936 210.848 358.907 210.837C358.877 210.826 358.851 210.809 358.828 210.787C358.806 210.766 358.788 210.74 358.775 210.711C358.763 210.682 358.757 210.651 358.757 210.62C358.128 199.637 349.681 185.693 345.724 179.467C345.888 179.412 346.048 179.348 346.18 179.289C350.191 185.584 358.597 199.541 359.235 210.593Z" fill="#3A28B1"/>
<path d="M109.318 124.787C109.318 124.787 103.146 102.047 91.1069 88.1531C91.1069 88.3714 88.235 93.265 85.3495 93.2877C86.1655 95.1751 89.1148 101.597 91.7314 107.414C94.7811 114.236 98.3276 122.422 96.0028 123.081C93.6779 123.741 85.3723 116.928 78.2883 114.058C76.8573 113.49 75.3872 113.025 73.8893 112.667C69.7014 111.74 65.4123 111.349 61.1254 111.502H61.0571C60.9004 111.806 60.6329 112.038 60.3097 112.151C59.9865 112.263 59.6323 112.248 59.3202 112.107C59.2919 112.093 59.267 112.073 59.2473 112.048C58.5746 113.347 57.4802 114.379 56.143 114.977C52.8426 116.619 56.2615 121.13 56.3253 124.177C56.3891 127.224 53.2711 130.763 46.9165 131.859C44.8123 132.252 42.6754 132.446 40.5345 132.436C40.8827 132.888 41.1552 133.394 41.3414 133.933C43.1648 139.422 43.3608 146.858 42.4445 153.034C41.5283 159.21 39.8143 165.896 39.8143 165.896C39.8143 165.896 44.4549 170.771 56.8632 171.808C69.2715 172.845 73.2375 169.989 73.5429 169.798C73.8483 169.607 75.5578 158.824 77.2718 155.699C78.9858 152.575 83.444 147.59 81.3015 141.919C79.159 136.248 77.0894 132.104 79.7151 130.886C82.3409 129.667 88.3764 134.419 95.9071 135.52C103.438 136.621 111.639 134.851 109.318 124.787Z" fill="#51B6A5"/>
<path d="M90.0539 83.0275C89.5023 83.214 89.2014 86.1383 88.9553 86.2111C88.7091 86.2839 88.4629 81.3357 87.9159 81.4539C87.3689 81.5722 87.6105 86.3976 87.4874 86.7296C87.3643 87.0616 85.7141 79.5666 84.7523 80.3624C83.7904 81.1583 85.6093 87.6755 85.3631 88.0439C85.117 88.4123 82.7967 82.1907 82.4274 83.5324C82.0582 84.874 84.4514 89.7494 84.3238 90.4816C84.1961 91.2138 80.4126 89.8676 80.5402 90.9682C80.6678 92.0688 83.8497 92.892 84.3238 93.1012C84.6469 93.2421 84.997 93.3104 85.3495 93.3013C88.235 93.2786 91.1069 88.385 91.1069 88.1667C91.1069 87.9484 90.6191 82.8456 90.0539 83.0275Z" fill="#ECB7B0"/>
</g>
<defs>
<linearGradient id="paint0_linear_266_560" x1="207.828" y1="238.149" x2="297.271" y2="238.149" gradientUnits="userSpaceOnUse">
<stop offset="0.01" stop-color="#0F0063"/>
<stop offset="1" stop-color="#170083"/>
</linearGradient>
<linearGradient id="paint1_linear_266_560" x1="46338.1" y1="60513.6" x2="49273.4" y2="31681.8" gradientUnits="userSpaceOnUse">
<stop offset="0.01" stop-color="#0F0063"/>
<stop offset="1" stop-color="#170083"/>
</linearGradient>
<linearGradient id="paint2_linear_266_560" x1="6909.04" y1="29870.8" x2="15448.8" y2="29870.8" gradientUnits="userSpaceOnUse">
<stop offset="0.01" stop-color="#0F0063"/>
<stop offset="1" stop-color="#170083"/>
</linearGradient>
<linearGradient id="paint3_linear_266_560" x1="311.321" y1="179.367" x2="343.954" y2="116.393" gradientUnits="userSpaceOnUse">
<stop stop-color="#4C46D3"/>
<stop offset="0.98" stop-color="#615FF4"/>
</linearGradient>
<clipPath id="clip0_266_560">
<rect width="415" height="332" fill="white" transform="translate(0 0.000244141)"/>
</clipPath>
</defs>
</svg>