<svg width="721" height="401" viewBox="0 0 721 401" fill="none" xmlns="http://www.w3.org/2000/svg">
<path d="M0 0H609V315H0V0Z" fill="#F5F3F8"/>
<path d="M494.335 102.333C488.114 101.949 480.302 101.658 471.61 101.665V102.333H466.043C466.043 102.333 466.043 102.091 466.043 101.707C457.847 101.835 449.056 102.255 440.193 103.129C419.535 105.168 417.326 111.728 417.326 111.728H520.93C519.24 103.392 507.544 103.129 494.335 102.333Z" fill="#13005E"/>
<path d="M519.006 383.752C518.97 381.002 518.757 366.448 517.585 352.178C516.286 336.323 514.631 301.551 513.097 280.501C511.563 259.452 510.257 247.15 510.257 247.506C510.257 247.861 497.85 247.506 497.85 247.506L499.746 355.241C499.746 355.241 503.418 377.122 506.713 384.229C506.713 384.229 510.853 387.071 519.006 384.229V383.752Z" fill="#B5B348"/>
<path d="M534.998 111.223H398.045C397.84 111.227 397.638 111.275 397.452 111.365C397.267 111.454 397.104 111.583 396.973 111.742C397.195 111.99 397.319 112.311 397.321 112.644V147.182C397.69 149.627 399.317 156.755 407.633 156.151C409.009 156.039 410.375 155.833 411.723 155.533C417.241 154.332 421.516 152.1 425.571 153.784C427.26 154.543 428.727 155.722 429.832 157.21C436.223 165.19 438.517 181.692 431.778 189.495C430.628 190.852 429.227 191.974 427.652 192.799C422.425 195.471 416.467 193.88 411.986 192.373C416.893 196.396 422.155 199.964 427.709 203.033C427.57 204.469 426.935 205.811 425.912 206.828C424.144 208.711 420.706 211.88 420.706 211.88C420.706 211.88 405.019 208.405 397.357 202.642V245.523C397.355 245.856 397.231 246.178 397.009 246.425C397.132 246.564 397.278 246.679 397.442 246.766C397.635 246.883 397.855 246.947 398.081 246.951H451.697C452.237 246.951 454.538 250.505 451.697 256.9C448.857 263.296 442.984 277.161 452.408 286.919C461.831 296.676 481.524 300.933 488.76 293.13C495.997 285.327 493.547 275.896 490.358 270.389C487.17 264.881 484.677 254.697 491.587 246.937H534.998C535.371 246.925 535.725 246.771 535.989 246.507C536.253 246.243 536.406 245.889 536.419 245.516V112.623C536.413 112.25 536.261 111.894 535.995 111.632C535.729 111.37 535.371 111.223 534.998 111.223Z" fill="#FDC130"/>
<path d="M265.339 249.822C266.636 247.76 267.408 245.412 267.589 242.983C267.769 240.554 267.353 238.117 266.376 235.886C262.293 225.937 268.677 208.881 285.167 207.417C301.657 205.953 308.921 219.207 308.389 225.951C307.856 232.695 302.26 249.822 302.26 249.822H355.408C355.635 249.825 355.857 249.886 356.054 250C356.213 249.908 356.356 249.793 356.48 249.659C356.703 249.411 356.827 249.089 356.828 248.756V189.693C356.828 189.693 363.589 192.884 369.263 194.832C374.937 196.779 384.51 200.517 391.278 192.7C398.046 184.882 395.709 168.395 389.325 160.414C382.941 152.434 376.919 158.638 367.161 159.348C358.845 159.953 357.219 152.825 356.857 150.387V115.849C356.854 115.516 356.73 115.195 356.509 114.947C356.378 114.789 356.214 114.662 356.029 114.573C355.843 114.485 355.641 114.438 355.436 114.435H218.462C218.086 114.435 217.724 114.585 217.458 114.851C217.192 115.118 217.042 115.479 217.042 115.856V248.749C217.045 249.006 217.118 249.258 217.254 249.477C217.389 249.696 217.581 249.874 217.809 249.993C218.008 249.879 218.233 249.818 218.462 249.815L265.339 249.822Z" fill="#3BB5D4"/>
<path d="M399.686 310.747C392.059 299.746 385.327 303.299 372.913 306.639C360.5 309.979 356.999 301.878 356.999 301.878V255.685C356.998 255.355 356.876 255.037 356.658 254.79C356.544 254.641 356.398 254.52 356.232 254.434C356.03 254.327 355.806 254.269 355.578 254.264H302.431C302.431 254.264 308.027 237.13 308.566 230.386C309.106 223.642 301.827 210.345 285.337 211.852C268.848 213.358 262.47 230.386 266.547 240.328C267.523 242.559 267.94 244.996 267.759 247.425C267.578 249.854 266.806 252.202 265.51 254.264H218.64C218.411 254.267 218.186 254.328 217.986 254.441C217.758 254.56 217.566 254.738 217.431 254.957C217.296 255.176 217.223 255.428 217.219 255.685V388.578C217.219 388.955 217.369 389.316 217.635 389.583C217.902 389.849 218.263 389.999 218.64 389.999H355.578C355.952 389.99 356.308 389.837 356.573 389.573C356.837 389.308 356.99 388.952 356.999 388.578V349.342C360.762 344.794 367.594 351.048 380.185 353.713C392.776 356.378 397.378 351.581 402.164 341.824C406.951 332.066 407.306 321.776 399.686 310.747Z" fill="#BAC5FD"/>
<path d="M511.222 205.399C508.914 203.374 504.348 203.267 504 204.156C503.652 205.044 509.582 206.82 509.582 208.057C509.582 209.294 501.87 211.17 502.58 212.762C503.29 214.353 510.008 210.63 510.008 210.9C510.008 211.17 501.87 215.874 502.537 217.196C503.205 218.518 511.769 213.472 512.06 213.557C512.352 213.643 508.254 217.502 508.779 218.326C509.305 219.15 514.517 214.623 514.517 214.623C514.517 214.623 512.238 218.887 513.218 219.854C514.198 220.82 518.828 213.963 518.828 213.963C518.828 213.963 514.858 208.59 511.222 205.399Z" fill="#ECB7B0"/>
<path d="M536.177 168.9C536.177 168.9 539.572 177.719 533.777 185.529C527.982 193.339 512.728 206.849 512.728 206.849L519.219 213.991C519.219 213.991 534.487 211.219 544.784 198.69C555.081 186.162 551.793 160.223 536.426 143.309L536.177 168.9Z" fill="#13005E"/>
<path d="M250.156 135.058C249.631 133.537 248.296 128.321 248.914 127.611C249.531 126.9 250.902 132.138 251.527 132.045C252.152 131.953 252.372 124.455 253.608 124.633C254.843 124.811 253.125 130.268 253.92 130.354C253.92 130.354 256.178 123.794 257.421 124.015C258.366 124.185 256.171 131.214 256.612 131.214C257.052 131.214 259.9 126.545 260.525 127.611C261.15 128.677 256.931 133.552 257.556 133.552C258.181 133.552 259.445 131.086 260.084 132.244C260.723 133.402 255.639 140.061 255.639 140.061C255.639 140.061 251.371 138.647 250.156 135.058Z" fill="#ECB7B0"/>
<path d="M427.694 203.025C427.694 203.025 435.059 202.031 435.762 203.025C436.465 204.02 432.104 204.887 432.076 204.802C432.047 204.717 439.227 210.032 438.695 210.743C438.162 211.454 431.508 209.059 431.508 209.059C431.508 209.059 437.359 213.849 436.919 214.645C436.479 215.441 429.47 211.894 429.47 211.894C429.47 211.894 433.638 215.092 433.02 216.421C432.403 217.75 426.984 213.387 426.984 213.387C426.984 213.387 430.535 216.848 429.91 218.177C429.285 219.506 420.678 211.88 420.678 211.88C422.383 210.194 424.002 208.422 425.528 206.572C428 203.544 427.694 203.025 427.694 203.025Z" fill="#ECB7B0"/>
<path d="M443.232 251.215C441.691 251.336 434.505 250.817 434.15 249.751C433.795 248.685 438.517 248.806 438.695 248.33C438.872 247.854 430.492 245.032 430.485 242.772C430.485 241.351 438.048 243.952 438.048 243.952C438.048 243.952 430.478 240.051 430.478 238.267C430.478 236.483 439.582 240.633 439.582 240.633C439.582 240.633 434.739 237.556 435.094 236.369C435.449 235.183 441.713 238.736 441.713 238.736C441.713 238.736 438.759 236.256 439.469 235.069C440.179 233.882 448.211 241.337 448.211 241.337L443.232 251.215Z" fill="#ECB7B0"/>
<path d="M188.913 153.948C190.702 156.392 192.4 159.057 194.445 161.523C202.757 161.748 210.84 158.786 217.042 153.244V139.287C217.042 139.287 212.071 144.134 200.616 145.683C189.161 147.232 180.164 144.503 176.244 144.496C180.767 145.875 184.872 148.447 188.913 153.948Z" fill="#51B6A5"/>
<path d="M172.601 109.958C165.982 111.251 164.448 115.274 165.627 120.717C166.806 126.161 165.038 129.593 161.494 132.898C160.63 133.69 159.86 134.58 159.2 135.549C160.137 136.88 161.205 138.113 162.389 139.23C163.376 140.135 164.477 140.909 165.662 141.532C165.038 138.335 164.242 133.637 165.038 134.255C165.833 134.874 171.777 137.013 174.98 132.123C178.182 127.234 178.616 116.489 177.728 111.72C177.302 109.439 176.975 107.99 176.215 107.066C175.903 109.183 174.007 109.681 172.601 109.958Z" fill="#ECB7B0"/>
<path d="M175.2 102.624C172.487 96.5978 160.606 94.5795 155.678 100.137C150.749 105.694 148.967 108.416 148.136 116.695C147.305 124.974 143.058 126.751 137.143 130.652C131.227 134.554 115.398 140.708 116.463 154.545C117.528 168.381 123.082 174.528 132.797 175.353C133.01 175.353 133.209 175.353 133.407 175.353C142.803 175.907 149.961 170.705 151.005 165.034C152.07 159.242 152.361 158.411 155.706 155.085C159.051 151.759 159.392 150.593 158.092 145.036C157.197 141.213 157.51 138.455 158.923 136.032C159.023 135.854 159.115 135.67 159.228 135.499C159.889 134.53 160.658 133.641 161.522 132.848C165.073 129.544 166.841 126.111 165.655 120.668C164.469 115.224 166.01 111.202 172.629 109.908C174.049 109.631 175.931 109.134 176.229 107.023C176.336 106.028 176.102 104.614 175.2 102.624Z" fill="url(#paint0_linear_266_872)"/>
<path d="M255.617 140.083L250.568 136.16C247.806 151.126 233.468 170.037 216.268 170.627C204.614 171.025 198.748 166.704 194.445 161.523C192.4 159.057 190.702 156.392 188.913 153.948C184.872 148.447 180.767 145.889 176.244 144.496C174.509 143.971 172.739 143.574 170.946 143.309C167.745 142.852 164.76 141.429 162.389 139.23C161.205 138.113 160.137 136.88 159.2 135.549C159.086 135.719 158.994 135.904 158.895 136.082C157.474 138.505 157.169 141.263 158.064 145.086C159.363 150.643 159.015 151.823 155.678 155.134C152.34 158.446 152.042 159.278 150.977 165.084C149.933 170.769 142.774 175.957 133.379 175.402C132.328 189.139 132.079 202.599 132.179 208.604C132.168 213.049 131.117 217.43 129.111 221.396C129.111 221.396 149.911 229.434 160.904 228.254C171.898 227.074 174.497 224.232 174.497 224.232C172.132 212.634 173.432 197.383 174.021 191.591C174.61 185.799 178.751 186.51 181.35 183.433C183.949 180.356 181.108 176.923 181.108 176.923C181.108 176.923 192.471 188.045 208.534 189.573C224.598 191.101 237.842 187.803 247.65 170.037C257.457 152.271 255.617 140.083 255.617 140.083Z" fill="#51B6A5"/>
<path d="M79.7198 372.162C77.9516 373.114 75.8211 374.883 77.8308 377.136C80.1447 379.935 81.9085 383.147 83.0292 386.602C83.7393 389.324 86.9279 391.747 90.713 391.25C94.4981 390.752 95.2012 388.727 93.0778 387.192C91.2243 385.863 89.4702 381.578 87.4889 377.911C86.7788 378.565 86.3385 378.92 86.3385 378.92C85.0318 376.298 79.7198 372.162 79.7198 372.162Z" fill="#3A28B1"/>
<path d="M208.179 391.2C205.603 391.229 203.054 390.665 200.73 389.551C200.73 389.551 199.43 393.332 199.906 395.101C200.382 396.871 206.88 396.409 212.312 396.409C217.745 396.409 220.834 396.174 221.409 395.101C221.942 394.142 215.842 389.608 212.27 388.4C212.27 389.217 212.312 389.665 212.312 389.665C211.142 390.619 209.689 391.159 208.179 391.2Z" fill="#3A28B1"/>
<path d="M212.305 389.63C212.305 389.63 211.02 390.937 208.179 391.179C205.339 391.42 201.078 389.871 200.737 389.509C200.396 389.146 192.215 361.374 189.147 339.841C186.079 318.308 180.043 306.369 172.104 293.25C165.314 281.979 154.066 263.9 150.565 258.933C150.538 258.905 150.518 258.871 150.508 258.833C150.243 258.389 149.912 257.986 149.528 257.639C149.501 257.639 149.475 257.647 149.453 257.66C149.43 257.674 149.412 257.694 149.4 257.718C148.605 258.428 146.623 266.594 143.009 280.7C139.216 295.624 129.416 321.151 117.01 342.328C106.443 360.343 91.6078 374.166 87.425 377.861L86.2746 378.856C84.9679 376.255 79.6489 372.112 79.6489 372.112L100.108 330.837C107.664 315.579 111.336 311.55 113.111 301.743C114.887 291.936 114.176 278.909 117.479 262.714C120.781 246.518 127.421 225.575 129.061 221.318C129.061 221.318 149.854 229.362 160.848 228.169C171.841 226.975 174.447 224.153 174.447 224.153C174.447 224.153 188.984 257.86 195.482 277.374C201.98 296.889 207.071 318.059 209.195 339.713C211.048 358.645 212.035 382.658 212.213 388.358C212.291 389.217 212.305 389.63 212.305 389.63Z" fill="url(#paint1_linear_266_872)"/>
<path d="M310.761 250.277C307.508 251.798 296.458 252.345 295.933 252.231C295.407 252.118 293.568 256.787 291.672 259.388C289.776 261.989 288.661 260.752 288.782 259.089C288.902 257.426 288.128 256.78 287.035 256.9L286.822 256.986C286.571 257.231 286.413 257.554 286.374 257.902C285.905 260.617 286.743 268.64 286.743 268.64V269.124L286.687 270.062C286.687 270.062 291.033 273.523 294.136 273.167C294.984 273.044 295.818 272.832 296.622 272.535C300.108 271.313 304.959 268.413 307.274 264.007C309.71 259.26 311.038 254.235 310.761 250.277Z" fill="#ECB7B0"/>
<path d="M308.928 242.353C308.928 242.353 310.285 240.051 309.525 238.75C308.765 237.45 305.449 238.388 305.449 238.388C305.449 238.388 304.795 235.375 298.83 236.682C292.865 237.99 290.493 240.641 289.257 242.24C288.193 243.839 287.282 245.535 286.537 247.307C285.117 245.175 282.575 246.496 282.397 250.519C282.22 254.541 284.229 261.399 286.239 261.178C286.161 260.09 286.207 258.995 286.374 257.917C286.452 257.448 286.573 257.114 286.743 257.042C286.767 257.024 286.793 257.01 286.821 257C286.882 256.955 286.953 256.926 287.027 256.915C288.121 256.794 288.888 257.455 288.774 259.103C288.661 260.752 289.776 262.003 291.665 259.402C293.554 256.801 295.393 252.125 295.926 252.246C296.458 252.366 307.501 251.812 310.754 250.291C313.992 248.763 316.882 246.695 317.06 244.507C317.237 242.318 308.928 242.353 308.928 242.353Z" fill="#13005E"/>
<path d="M286.821 256.986C286.793 256.996 286.766 257.01 286.743 257.028C286.573 257.099 286.452 257.433 286.374 257.902C286.413 257.554 286.571 257.231 286.821 256.986Z" fill="#13005E"/>
<path d="M351.829 280.899C351.772 280.821 351.829 280.899 351.829 280.899V280.899Z" fill="#3A28B1"/>
<path d="M353.483 282.747C352.888 282.176 352.336 281.563 351.829 280.913C351.594 281.318 348.697 286.208 340.637 296.228C332.214 306.696 324.303 311.152 318.473 304.045C312.643 296.939 309.241 286.129 304.114 280.103C301.888 277.318 299.363 274.784 296.586 272.549C295.782 272.846 294.949 273.058 294.101 273.181C290.997 273.537 286.651 270.076 286.651 270.076L286.708 269.138C286.317 269.138 285.912 269.138 285.501 269.187C285.501 269.187 269.629 278.241 266.085 293.492C262.541 308.743 262.534 317.711 264.224 329.778C265.709 340.374 269.039 347.21 269.82 348.71L269.991 349.022C269.991 349.022 282.312 350.266 292.41 347.956C302.509 345.647 311.023 335.534 311.023 335.534C311.023 335.534 306.507 323.915 306.329 317.768C306.329 317.768 310.498 325.926 322.109 325.301C326.123 325.123 330.044 324.031 333.573 322.109C337.102 320.186 340.147 317.484 342.476 314.207C345.04 310.747 356.977 294.721 359.726 287.004C359.69 287.004 355.614 284.964 353.483 282.747Z" fill="url(#paint2_linear_266_872)"/>
<path d="M279.649 364.757C282.348 369.084 287.184 378.472 285.238 381.279C283.015 384.477 267.768 382.701 261.299 381.727C254.829 380.753 250.866 379.965 250.866 379.965L248.558 388.663C248.558 388.663 248.502 388.812 248.431 389.061C249.382 389.615 264.054 394.156 271.866 395.855C279.94 397.617 296.863 398.889 301.834 395.855C306.599 392.941 310.356 380.462 308.296 364.771C295.862 369.632 285.998 369.39 279.649 364.757Z" fill="#B5B348"/>
<path d="M248.36 389.011C248.445 388.748 250.845 379.965 250.845 379.965C250.388 379.454 249.786 379.095 249.12 378.936C248.454 378.777 247.755 378.826 247.117 379.076C246.052 379.609 242.33 384.847 241.975 389.104C241.62 393.36 244.369 397.347 247.209 397.681C250.05 398.015 249.425 395.862 248.36 394.036C247.507 392.579 248.125 390.035 248.409 389.061C248.374 389.04 248.36 389.025 248.36 389.011Z" fill="#13005E"/>
<path d="M250.867 379.965C250.867 379.965 248.466 388.748 248.381 389.011C248.381 389.011 248.381 389.011 248.431 389.061C248.502 388.812 248.559 388.663 248.559 388.663L250.867 379.965Z" fill="#13005E"/>
<path d="M334.778 395.748C332.872 395.457 331.089 394.628 329.636 393.36C329.203 394.689 327.961 399.124 328.841 399.927C329.722 400.73 348.434 401.078 348.725 400.986C349.017 400.893 347.305 395.748 340.395 395.045C338.618 395.772 336.68 396.015 334.778 395.748Z" fill="#13005E"/>
<path d="M356.146 332.955C350.565 329.316 311.023 335.52 311.023 335.52C311.023 335.52 302.502 345.633 292.41 347.942C282.319 350.252 269.991 349.008 269.991 349.008L269.82 348.696C269.991 349.008 272.824 359.746 279.557 364.707C279.59 364.724 279.621 364.745 279.649 364.771C285.998 369.39 295.862 369.632 308.275 364.771C309.042 364.472 309.809 364.152 310.583 363.825C324.147 357.963 338.151 350.16 338.151 350.16C338.151 350.16 338.599 350.87 337.086 353.087C335.573 355.305 331.405 365.51 330.261 376.326C329.118 387.142 329.637 393.382 329.637 393.382C331.089 394.65 332.872 395.478 334.778 395.769C336.671 396.029 338.599 395.784 340.367 395.059C340.367 395.059 349.677 374.393 355.351 358.51C361.025 342.627 361.735 336.593 356.146 332.955Z" fill="#B5B348"/>
<path d="M483.519 80.3238C483.264 83.2588 480.238 82.875 480.238 82.875C480.069 84.3663 479.762 85.8388 479.322 87.274C478.88 88.7856 478.305 90.2553 477.604 91.6658C477.519 91.8435 477.419 92.0283 477.32 92.2201C476.326 94.0465 474.138 95.2404 471.639 95.7734C469.645 96.191 467.583 96.1594 465.602 95.681C463.926 95.3589 462.404 94.492 461.27 93.215C459.164 90.4904 457.983 87.1642 457.897 83.7207C455.341 84.3176 453.7 77.8294 455.057 76.7492C455.298 76.6852 457.272 76.2162 458.167 79.2507C458.451 80.2172 458.764 79.8334 458.664 77.5451C458.543 74.7664 459.289 73.1319 461.143 71.6324C462.996 70.133 463.926 71.4832 468.564 72.201C473.201 72.9187 476.063 69.8842 477.085 69.4436C478.108 69.003 478.768 73.5157 478.669 75.9959C478.57 78.476 480.892 78.4832 481.602 77.4172C481.66 77.305 481.71 77.1886 481.751 77.0689C482.71 77.3035 483.704 78.3623 483.519 80.3238Z" fill="#ECB7B0"/>
<path d="M482.468 67.5605C482.376 63.2966 478.115 56.8225 468.606 57.0002C459.097 57.1778 456.044 62.4154 455.156 66.7575C454.489 70.0366 454.448 73.4123 455.035 76.7066C455.277 76.6356 457.258 76.1665 458.146 79.2153C458.423 80.1746 458.742 79.7909 458.643 77.5026C458.522 74.7168 459.268 73.0965 461.128 71.5899C462.989 70.0833 463.905 71.4407 468.549 72.1442C473.194 72.8478 476.049 69.8417 477.029 69.4011C478.009 68.9605 478.705 73.4803 478.619 75.9605C478.534 78.4406 480.835 78.4477 481.545 77.3818C481.607 77.2736 481.657 77.1593 481.694 77.0406C482.319 75.3209 482.546 71.4975 482.468 67.5605Z" fill="#3A28B1"/>
<path d="M465.609 95.667C465.78 95.7096 465.993 100.052 466.064 101.7C466.064 102.084 466.064 102.326 466.064 102.326H471.653V95.7452C469.657 96.1649 467.593 96.1382 465.609 95.667Z" fill="#ECB7B0"/>
<path d="M411.95 192.373C409.284 190.2 406.861 187.746 404.721 185.053C397.413 175.537 404.103 162.475 411.723 155.532C410.375 155.833 409.009 156.039 407.633 156.151C399.317 156.755 397.69 149.627 397.321 147.182V143.629C392.307 151.169 383.686 161.665 383.828 175.466C383.949 189.53 389.382 196.267 396.831 202.244L397.35 202.649C405.012 208.384 420.699 211.887 420.699 211.887C420.699 211.887 424.136 208.718 425.905 206.835C426.928 205.818 427.563 204.476 427.701 203.04C422.138 199.97 416.866 196.4 411.95 192.373Z" fill="#13005E"/>
<path d="M533.422 146.99C532.755 143.016 530.997 139.306 528.344 136.274C525.035 132.55 520.483 131.832 517.529 134.554C514.574 137.276 510.427 139.763 508.545 139.884C506.663 140.005 505.3 139.82 504.178 141.355C502.615 143.487 504.526 147.623 506.834 149.456C507.377 149.899 508.018 150.206 508.703 150.353C509.388 150.5 510.098 150.482 510.775 150.302C512.197 149.923 513.515 149.229 514.631 148.27C517.294 146.138 521.371 141.81 525.447 143.778C529.523 145.747 529.58 148.49 530.645 150.451C531.71 152.413 533.486 153.479 533.599 149.4C533.612 148.593 533.552 147.787 533.422 146.99Z" fill="#13005E"/>
<path d="M536.973 149.691C537.242 152.363 534.217 152.803 534.217 152.803C534.217 152.803 534.132 153.685 534.217 157.856C534.25 159.598 533.941 161.329 533.308 162.952C532.791 164.294 532.038 165.534 531.085 166.611C530.154 167.686 529.023 168.569 527.755 169.212C523.671 171.266 520.121 169.923 518.281 167.791C518.037 167.527 517.822 167.236 517.642 166.924C516.655 165.029 515.773 163.081 515 161.09C513.488 157.33 511.812 152.917 510.86 150.65C510.86 150.572 510.803 150.522 510.775 150.451V150.337C512.198 149.959 513.517 149.262 514.631 148.298C517.301 146.166 521.371 141.831 525.44 143.799C529.509 145.768 529.58 148.518 530.645 150.472C531.71 152.427 533.486 153.514 533.606 149.421C533.613 148.619 533.551 147.817 533.422 147.026C534.785 145.874 536.731 147.296 536.973 149.691Z" fill="#ECB7B0"/>
<path d="M536.177 168.9C536.091 168.516 535.96 168.144 535.787 167.791C534.998 166.121 533.976 164.195 533.308 162.952C532.789 164.292 532.039 165.53 531.093 166.612C531.793 167.897 532.576 169.136 533.436 170.321C533.697 170.739 534.059 171.086 534.487 171.33C535.396 171.636 536.618 170.819 536.177 168.9Z" fill="#ECB7B0"/>
<path d="M610.722 227.991L589.091 186.126C589.091 186.126 589.048 185.757 588.949 185.089C588.878 184.591 588.778 183.923 588.636 183.127C587.926 179.069 586.314 171.757 583.061 166.512C578.339 158.922 572.544 152.946 562.964 156.407C555.508 159.107 541.851 165.986 536.177 168.9C536.618 170.812 535.396 171.636 534.487 171.33C534.059 171.086 533.698 170.739 533.436 170.321C529.963 172.219 513.616 177.819 510.001 184.819C506.386 191.818 509.603 208.235 502.488 219.477C495.372 230.72 489.705 240.172 448.211 241.344L443.24 251.208C443.24 251.208 454.602 256.026 480.501 252.949C486.829 252.282 493.053 250.85 499.036 248.685C499.644 250.07 499.937 251.572 499.896 253.084C499.778 254.6 499.541 256.104 499.185 257.583C499.185 257.583 503.446 258.762 521.761 254.989C540.076 251.215 548.236 246.944 548.236 246.944C548.257 246.983 548.276 247.023 548.292 247.065C548.328 247.136 548.385 247.25 548.449 247.399C549.017 248.657 550.664 252.295 551.559 254.306C551.751 254.74 551.914 255.102 552.014 255.344C552.724 256.993 556.147 259.729 580.86 251.919C605.573 244.109 610.509 230.734 610.999 228.467L610.722 227.991ZM521.726 237.798C518.665 238.75 515.057 240.058 511.613 241.394C515.455 238.025 517.628 234.451 518.644 231.295C521.257 223.379 525.184 212.676 525.411 209.13C525.639 205.584 525.738 202.315 528.252 207.169C530.588 211.738 538.272 226.179 539.16 227.842L539.238 227.991C539.238 227.991 539.025 228.176 538.613 228.488C536.511 230.151 529.495 235.417 521.726 237.798Z" fill="url(#paint3_linear_266_872)"/>
<path d="M719.332 360.692C717.678 354.537 710.882 352.91 710.882 352.91C713.651 359.569 710.122 368.239 710.122 368.239L709.22 367.805C710.711 370.25 712.132 378.764 711.954 379.822C711.776 380.881 707.643 385.863 708.467 386.801C709.291 387.739 716.62 387.043 717.919 383.02C719.219 378.998 720.987 366.839 719.332 360.692Z" fill="#13005E"/>
<path d="M549.5 385.046C544.763 386.695 537.853 390.447 537.335 391.698C536.745 393.119 544.074 393.702 551.403 393.467C558.732 393.233 562.162 393.581 562.63 390.504C562.992 388.18 561.579 385.238 560.876 383.951C559.214 386.211 549.5 385.046 549.5 385.046Z" fill="#13005E"/>
<path d="M498.809 254.463C498.61 254.57 498.389 254.629 498.163 254.633H454.744C447.82 262.394 450.327 272.599 453.515 278.085C456.704 283.571 459.197 293.009 451.918 300.826C444.639 308.643 424.974 304.379 415.558 294.615C406.141 284.851 412.007 271.014 414.848 264.597C417.688 258.18 415.38 254.648 414.848 254.648H361.217C360.988 254.645 360.763 254.584 360.564 254.47C360.404 254.562 360.262 254.683 360.145 254.825C360.365 255.072 360.489 255.39 360.493 255.721V301.913C360.493 301.913 363.994 310.022 376.4 306.675C388.806 303.328 395.574 299.781 403.173 310.782C410.771 321.783 410.445 332.102 405.651 341.831C400.858 351.56 396.256 356.378 383.636 353.72C371.017 351.062 364.214 344.801 360.457 349.35V388.62C360.448 388.954 360.323 389.273 360.102 389.523C360.234 389.682 360.399 389.81 360.585 389.898C360.772 389.986 360.975 390.033 361.181 390.035H498.163C498.539 390.035 498.901 389.885 499.167 389.618C499.433 389.352 499.583 388.99 499.583 388.613V255.721C499.582 255.46 499.509 255.205 499.372 254.983C499.236 254.761 499.041 254.581 498.809 254.463Z" fill="#21C8FF"/>
<path d="M710.875 352.931C710.527 352.073 710.074 351.261 709.525 350.515C704.441 343.771 679.621 328.165 667.925 321.421C656.228 314.677 648.296 311.962 639.909 291.85C631.522 271.739 624.286 242.431 610.715 227.998L610.956 228.46C610.48 230.706 605.516 244.094 580.817 251.912C556.118 259.729 552.681 256.964 551.971 255.316C551.872 255.067 551.708 254.719 551.524 254.285C549.848 257.213 537.2 269.507 528.216 280.864C519.233 292.22 510.725 299.668 511.677 309.247C512.629 318.827 520.064 332.699 528.721 349.463C537.242 366.057 549.23 384.605 549.507 385.039C549.507 385.039 559.222 386.204 560.869 383.93C560.97 383.804 561.045 383.659 561.089 383.504C561.8 380.661 552.106 353.464 547.497 337.261C542.888 321.058 538.748 312.388 548.917 302.134C559.087 291.879 583.31 273.516 586.974 271.27C590.639 269.024 592.407 268.669 599.146 280.608C605.886 292.547 615.217 313.021 623.292 322.48C631.366 331.939 646.016 339.28 663.117 346.642C678.513 353.23 704.185 365.439 709.277 367.855L710.179 368.289C710.179 368.289 713.644 359.59 710.875 352.931Z" fill="#0F0063"/>
<path d="M527.158 387.171C525.433 386.14 521.179 384.541 519.006 383.752V384.229C510.853 387.071 506.713 384.229 506.713 384.229C505.889 386.119 506.003 389.786 506.713 390.02C507.423 390.255 527.868 390.02 528.728 390.02C529.587 390.02 529.523 388.585 527.158 387.171Z" fill="#A9A8E1"/>
<path d="M431.742 189.495C438.482 181.677 436.174 165.19 429.796 157.21C428.692 155.722 427.225 154.543 425.536 153.784C426.75 158.574 427.389 183.802 427.581 192.799C429.169 191.978 430.582 190.856 431.742 189.495Z" fill="#13005E"/>
<path d="M497.999 246.077C497.808 245.757 492.318 241.245 491.473 242.311C490.628 243.377 495.024 248.337 495.024 248.337C495.024 248.337 487.042 247.989 487.042 249.048C487.042 250.106 492.361 250.696 492.361 250.696C492.361 250.696 484.279 250.59 484.265 252.345C484.265 253.418 492.183 253.766 492.183 253.766C492.183 253.766 485.92 254.825 485.92 255.657C485.92 256.488 492.773 256.367 492.773 256.367C492.773 256.367 487.873 257.732 488.285 258.62C488.526 259.153 499.157 257.554 499.157 257.554C499.157 257.554 501.777 252.473 497.999 246.077Z" fill="#ECB7B0"/>
<path d="M363.134 278.057C362.282 277.445 360.138 281.255 360.138 281.255C360.138 281.255 362.197 274.695 361.466 273.8C360.976 273.21 357.737 279.215 357.737 279.215C357.737 279.215 360.976 271.277 359.605 270.517C358.895 270.147 355.571 278.184 355.571 278.184C355.571 278.184 357.474 270.254 356.147 270.694C354.819 271.135 353.221 277.929 353.221 277.929C352.688 276.067 350.998 272.492 350.465 274.027C349.933 275.562 351.85 280.899 351.85 280.899C351.85 280.899 351.36 280.544 353.483 282.768C355.607 284.993 359.69 287.032 359.69 287.032C359.69 287.032 364.122 278.767 363.134 278.057Z" fill="#ECB7B0"/>
<path d="M460.915 91.5095C462.783 92.2202 464.644 91.0903 464.644 88.3684C464.644 85.6466 461.746 84.9715 460.205 85.9593C458.664 86.9471 458.735 90.6781 460.915 91.5095Z" fill="#F39E97"/>
<path d="M479.322 87.2739C478.88 88.7856 478.305 90.2552 477.604 91.6657C477.049 91.8795 476.451 91.9562 475.86 91.8894C475.269 91.8226 474.703 91.6142 474.209 91.282C472.313 90.0454 472.746 86.7551 474.437 85.7886C477.306 84.1399 478.96 85.6891 479.322 87.2739Z" fill="#F39E97"/>
<path d="M461.072 80.0964C460.205 79.8476 461.838 77.6375 463.912 77.7299C465.986 77.8223 467.008 80.5085 466.511 80.9207C466.014 81.3329 465.389 78.8882 464.146 78.5613C464.146 78.5613 464.707 80.4161 463.642 80.6933C462.577 80.9705 462.662 78.9522 462.662 78.9522C462.662 78.9522 461.597 80.2456 461.072 80.0964Z" fill="#361410"/>
<path d="M471.347 80.5369C470.58 80.4232 471.702 78.0496 473.478 77.6943C475.253 77.339 476.816 79.2009 476.425 79.8689C476.034 80.5369 475.005 79.0019 474.295 78.8527C474.295 78.8527 474.706 80.5369 473.705 80.7714C472.704 81.006 472.846 78.9095 472.846 78.9095C472.846 78.9095 471.965 80.6222 471.347 80.5369Z" fill="#361410"/>
<path d="M461.071 76.8701C461.176 76.7711 461.29 76.683 461.412 76.6071C461.762 76.3771 462.139 76.1909 462.534 76.0528C463.154 75.8322 463.809 75.7309 464.466 75.7543C464.914 75.7582 465.355 75.8571 465.762 76.0445C466.168 76.232 466.53 76.5037 466.824 76.8416L466.944 76.9838V77.0193L466.987 77.0904L467.03 77.1614L467.193 77.4599C467.321 77.6606 467.426 77.8752 467.505 78.0995C467.701 78.5829 467.847 79.0855 467.939 79.599C468.147 80.6552 468.263 81.7276 468.287 82.804C468.329 83.9127 468.287 85.0568 468.393 86.1867C468.422 86.74 468.512 87.2882 468.663 87.8213C468.691 87.9245 468.739 88.0211 468.805 88.1055C468.805 88.1055 468.862 88.1624 468.805 88.1055C468.805 88.1055 468.897 88.0416 468.805 88.1055C468.713 88.1695 468.919 87.9847 468.904 87.9563L469.004 87.6578C469.22 86.5356 469.339 85.3966 469.359 84.2538C469.359 83.1025 469.409 81.9655 469.437 80.8639C469.437 80.5797 469.437 80.3452 469.437 80.0183C469.437 79.6914 469.437 79.4853 469.494 79.2223C469.553 78.6573 469.679 78.1014 469.87 77.5665C470.031 77.0352 470.305 76.5449 470.673 76.1292C471.04 75.7134 471.493 75.3819 472.001 75.1574C472.872 74.8264 473.835 74.8264 474.706 75.1574C475.362 75.4391 475.934 75.8845 476.368 76.4508C476.626 76.7873 476.846 77.1521 477.021 77.5381C477.086 77.6753 477.138 77.818 477.178 77.9645C477.184 77.9873 477.186 78.0113 477.183 78.0348C477.18 78.0584 477.172 78.0811 477.16 78.1016C477.148 78.1222 477.132 78.1401 477.113 78.1544C477.095 78.1687 477.073 78.179 477.05 78.1848C477.018 78.195 476.983 78.1957 476.95 78.1869C476.918 78.1781 476.888 78.1601 476.865 78.135L476.595 77.8294C476.334 77.5554 476.056 77.2968 475.764 77.0548C475.364 76.7104 474.907 76.4365 474.415 76.2447C474.253 76.1821 474.084 76.1415 473.911 76.1239L473.634 76.067H473.563C473.563 76.067 473.684 76.067 473.563 76.067H473.442C473.279 76.067 473.094 76.067 472.931 76.067L472.427 76.202C472.067 76.3662 471.747 76.6061 471.488 76.9054C471.23 77.2046 471.039 77.5562 470.928 77.936C470.755 78.3704 470.634 78.8236 470.566 79.2863C470.566 79.5563 470.495 79.8193 470.467 80.0893C470.438 80.3594 470.424 80.6152 470.41 80.8781C470.325 81.9726 470.239 83.1096 470.154 84.268C470.087 85.4646 469.919 86.6533 469.65 87.8213C469.601 88.0035 469.527 88.178 469.43 88.34C469.388 88.4136 469.335 88.4806 469.274 88.539C469.179 88.6332 469.061 88.7017 468.933 88.738C468.803 88.7673 468.668 88.7595 468.542 88.7155C468.417 88.6715 468.306 88.5931 468.223 88.4893C468.108 88.3418 468.019 88.176 467.96 87.9989C467.798 87.4093 467.698 86.8043 467.662 86.1939C467.576 85.0142 467.598 83.8842 467.541 82.7898C467.517 81.7498 467.407 80.7135 467.214 79.6914C467.13 79.2377 467.004 78.7929 466.838 78.3624C466.68 77.9623 466.47 77.5848 466.213 77.2396C465.979 76.9723 465.691 76.7581 465.367 76.611C465.044 76.464 464.693 76.3875 464.338 76.3868C463.758 76.3642 463.179 76.4313 462.62 76.5858C462.249 76.6775 461.886 76.7963 461.533 76.9411C461.407 76.9924 461.286 77.0542 461.171 77.1259C461.13 77.1485 461.082 77.1553 461.036 77.1448C460.99 77.1343 460.95 77.1074 460.922 77.069C460.898 77.0361 460.885 76.9962 460.885 76.9553C460.885 76.9144 460.898 76.8746 460.922 76.8416L461.071 76.8701Z" fill="#DC847F"/>
<path d="M456.541 80.9988C456.495 80.997 456.451 80.9775 456.42 80.9443C456.388 80.9112 456.37 80.8671 456.37 80.8212C456.27 80.1312 455.968 79.4862 455.504 78.9664C455.483 78.9602 455.464 78.9497 455.448 78.9356C455.432 78.9214 455.419 78.904 455.411 78.8844C455.402 78.8649 455.397 78.8437 455.398 78.8222C455.398 78.8008 455.403 78.7797 455.412 78.7603C455.432 78.7144 455.469 78.6779 455.515 78.6582C455.561 78.6384 455.613 78.6368 455.66 78.6537C456.25 79.2351 456.625 79.999 456.725 80.8212C456.725 80.8451 456.721 80.8688 456.711 80.8908C456.702 80.9129 456.688 80.9328 456.671 80.9494C456.654 80.966 456.633 80.9789 456.611 80.9874C456.588 80.9959 456.565 80.9998 456.541 80.9988Z" fill="#F39E97"/>
<path d="M469.487 92.8667C468.958 92.8578 468.441 92.716 467.981 92.4546C467.961 92.4435 467.942 92.4283 467.928 92.4099C467.913 92.3916 467.903 92.3704 467.897 92.3477C467.891 92.325 467.889 92.3013 467.893 92.2781C467.897 92.255 467.905 92.2328 467.917 92.2129C467.942 92.1739 467.981 92.1457 468.026 92.1339C468.07 92.122 468.118 92.1274 468.159 92.149C468.159 92.149 469.522 92.9378 470.595 92.149C470.614 92.1354 470.635 92.1258 470.658 92.1206C470.681 92.1154 470.705 92.1148 470.728 92.1188C470.751 92.1227 470.773 92.1312 470.793 92.1437C470.812 92.1562 470.83 92.1725 470.843 92.1916C470.857 92.2107 470.866 92.2323 470.871 92.2552C470.877 92.2781 470.877 92.3017 470.873 92.3248C470.869 92.3479 470.861 92.37 470.848 92.3898C470.836 92.4096 470.82 92.4268 470.801 92.4403C470.42 92.7203 469.959 92.8698 469.487 92.8667Z" fill="#DA4F4F"/>
<path d="M480.743 81.1408C480.697 81.1408 480.654 81.1228 480.622 81.0909C480.59 81.0589 480.572 81.0155 480.572 80.9703C480.572 80.7357 481.084 79.1439 481.936 78.6677C481.956 78.6555 481.979 78.6475 482.002 78.6445C482.026 78.6414 482.049 78.6433 482.072 78.65C482.095 78.6567 482.116 78.668 482.134 78.6833C482.152 78.6986 482.167 78.7175 482.177 78.7388C482.198 78.7806 482.202 78.8288 482.189 78.8736C482.176 78.9184 482.146 78.9566 482.106 78.9804C481.396 79.3784 480.942 80.8139 480.927 80.9703C480.924 81.0168 480.903 81.0602 480.868 81.0918C480.834 81.1234 480.789 81.141 480.743 81.1408Z" fill="#F39E97"/>
<path d="M513.19 154.139C513.22 154.002 513.261 153.866 513.31 153.734C513.491 153.327 513.788 152.981 514.163 152.739C514.725 152.336 515.402 152.124 516.094 152.135C516.318 152.12 516.543 152.151 516.755 152.228C517.018 152.279 517.263 152.4 517.465 152.576L517.628 152.711C517.669 152.761 517.707 152.813 517.742 152.867L517.912 153.116L518.26 153.628C518.729 154.338 519.148 155.22 519.616 156.072L521.037 158.78C521.501 159.746 522.066 160.66 522.72 161.509C522.861 161.698 523.04 161.855 523.245 161.971C523.331 161.971 523.345 161.971 523.387 161.971C523.449 161.897 523.493 161.809 523.515 161.715C523.583 161.485 523.61 161.244 523.593 161.004C523.568 160.74 523.518 160.478 523.444 160.223C522.855 158.091 521.513 156.264 520.604 154.31C520.06 153.323 519.814 152.2 519.893 151.077C520.067 150.021 520.645 149.075 521.505 148.44C522.244 147.918 523.129 147.644 524.034 147.658C524.672 147.653 525.307 147.749 525.916 147.943C526.304 148.06 526.677 148.219 527.03 148.419C527.173 148.501 527.306 148.599 527.428 148.71C527.458 148.742 527.475 148.784 527.475 148.827C527.475 148.871 527.458 148.913 527.428 148.945C527.41 148.963 527.387 148.976 527.363 148.984C527.338 148.991 527.311 148.992 527.286 148.987H527.194L526.853 148.93C526.611 148.888 526.228 148.859 525.766 148.831C525.216 148.789 524.663 148.789 524.112 148.831C523.468 148.88 522.844 149.074 522.287 149.399C521.657 149.835 521.219 150.497 521.065 151.247C520.98 152.157 521.135 153.073 521.513 153.905C521.896 154.85 522.372 155.838 522.833 156.861C523.32 157.897 523.719 158.971 524.027 160.073C524.09 160.364 524.135 160.658 524.161 160.955C524.174 161.265 524.131 161.576 524.034 161.871C523.985 162.052 523.89 162.216 523.757 162.347C523.671 162.423 523.566 162.474 523.453 162.494C523.34 162.514 523.224 162.503 523.118 162.461C522.838 162.325 522.595 162.126 522.407 161.878C521.729 161.006 521.117 160.084 520.575 159.121L519.006 156.506C518.487 155.696 518.054 154.95 517.585 154.253L517.23 153.749L517.053 153.507C517.053 153.507 516.968 153.386 516.996 153.422L516.925 153.379C516.841 153.303 516.733 153.258 516.62 153.251C516.498 153.202 516.365 153.187 516.236 153.208C515.741 153.238 515.257 153.371 514.816 153.599C514.646 153.669 514.482 153.752 514.326 153.848C514.19 153.907 514.065 153.989 513.957 154.09C513.758 154.274 513.637 154.367 513.637 154.367C513.617 154.382 513.594 154.393 513.57 154.399C513.546 154.404 513.521 154.405 513.497 154.401C513.472 154.398 513.449 154.389 513.428 154.375C513.407 154.362 513.388 154.345 513.374 154.324C513.349 154.328 513.324 154.325 513.3 154.317C513.276 154.309 513.254 154.296 513.236 154.278C513.218 154.26 513.204 154.238 513.196 154.214C513.188 154.19 513.186 154.165 513.19 154.139Z" fill="#DC847F"/>
<path d="M520.632 165.986C520.149 167.407 519.354 167.919 518.281 167.763C518.037 167.498 517.823 167.208 517.642 166.896C516.655 165.001 515.773 163.053 515 161.061C515.569 160.5 516.506 160.351 517.699 160.813C519.822 161.658 521.285 164.046 520.632 165.986Z" fill="#F39E97"/>
<path d="M528.607 154.516C526.697 155.006 525.504 157.856 526.476 160.457C527.449 163.058 531.064 163.819 532.477 161.95C533.89 160.081 533.812 153.18 528.607 154.516Z" fill="#F39E97"/>
<path d="M514.333 157.245C513.679 157.423 513.573 155.589 514.546 154.673C515.519 153.756 517.798 154.317 517.649 155.028C517.529 155.561 516.733 154.467 515.434 155.064C515.434 155.064 516.499 156.201 515.966 156.741C515.434 157.281 514.425 156.122 514.425 156.122C514.425 156.122 514.809 157.146 514.333 157.245Z" fill="#361410"/>
<path d="M521.818 153.571C521.023 153.621 521.108 151.709 522.173 150.551C523.238 149.392 524.623 149.25 525.596 150.046C526.363 150.679 526.441 151.467 526.121 151.674C525.802 151.88 524.95 149.868 523.501 150.821C523.501 150.821 524.772 152.299 523.778 153.066C522.784 153.834 522.138 152.185 522.138 152.185C522.138 152.185 522.258 153.535 521.818 153.571Z" fill="#361410"/>
<path d="M524.353 165.993C524.136 165.992 523.92 165.956 523.714 165.887C523.692 165.878 523.672 165.865 523.655 165.849C523.638 165.832 523.624 165.812 523.615 165.79C523.606 165.769 523.601 165.745 523.601 165.721C523.601 165.698 523.605 165.674 523.615 165.652C523.635 165.611 523.668 165.579 523.71 165.561C523.752 165.542 523.798 165.54 523.842 165.553C524.173 165.681 524.542 165.673 524.868 165.53C525.194 165.388 525.45 165.123 525.582 164.792C525.603 164.751 525.639 164.72 525.683 164.706C525.727 164.691 525.774 164.694 525.816 164.714C525.838 164.723 525.857 164.737 525.873 164.754C525.889 164.771 525.902 164.791 525.91 164.813C525.918 164.835 525.921 164.858 525.92 164.882C525.918 164.905 525.912 164.928 525.901 164.949C525.78 165.26 525.567 165.526 525.29 165.713C525.014 165.899 524.687 165.997 524.353 165.993Z" fill="#DA4F4F"/>
<path d="M561.494 205.221C555.266 215.249 539.209 227.962 539.209 227.962L539.131 227.813C542.221 225.241 555.692 213.856 561.196 205.015C567.317 195.166 565.634 182.125 564.463 177.918L564.796 177.819C565.975 182.118 567.687 195.279 561.494 205.221Z" fill="#3A28B1"/>
<path d="M578.708 223.18L577.998 224.232C571.472 233.74 557.553 241.955 550.863 245.9C549.862 246.482 549.024 246.98 548.427 247.371C548.363 247.221 548.307 247.108 548.271 247.037C548.868 246.674 549.691 246.191 550.686 245.615C557.354 241.692 571.223 233.499 577.671 224.054L578.381 223.009C585.675 212.428 590.071 206.039 588.437 183.156H588.608C588.75 183.952 588.849 184.62 588.92 185.117C590.213 206.487 585.831 212.833 578.708 223.18Z" fill="#3A28B1"/>
<path d="M306.443 318.166C306.425 318.167 306.407 318.164 306.39 318.158C306.373 318.152 306.357 318.143 306.344 318.13C306.294 318.13 301.415 314.499 293.717 303.548C286.111 292.724 284.4 283.983 288.632 277.566C288.642 277.542 288.658 277.52 288.677 277.503C288.696 277.485 288.719 277.472 288.744 277.464C288.769 277.456 288.796 277.454 288.822 277.458C288.847 277.462 288.872 277.471 288.894 277.486C288.916 277.5 288.934 277.519 288.948 277.541C288.962 277.564 288.97 277.589 288.973 277.615C288.976 277.641 288.973 277.667 288.964 277.692C288.956 277.717 288.942 277.739 288.924 277.758C284.783 284.047 286.495 292.682 294.008 303.342C301.664 314.236 306.5 317.811 306.55 317.846C306.586 317.873 306.611 317.913 306.619 317.958C306.627 318.003 306.617 318.05 306.592 318.088C306.576 318.112 306.553 318.132 306.527 318.146C306.501 318.159 306.472 318.166 306.443 318.166Z" fill="#BAC5FD"/>
<path d="M150.529 258.869C150.264 258.424 149.934 258.022 149.549 257.675C149.523 257.675 149.497 257.682 149.474 257.696C149.451 257.71 149.433 257.73 149.421 257.753C147.291 254.2 145.238 250.767 144.244 248.849L144.557 248.692C145.665 250.831 148.107 254.918 150.529 258.869Z" fill="#F39E97"/>
<path d="M181.108 177.073C181.067 177.07 181.027 177.055 180.995 177.03C176.854 173.633 173.084 169.014 171.379 165.261C171.36 165.219 171.358 165.171 171.374 165.127C171.39 165.083 171.422 165.047 171.464 165.027C171.507 165.007 171.555 165.005 171.599 165.021C171.643 165.037 171.679 165.07 171.699 165.112C173.382 168.815 177.117 173.391 181.222 176.76C181.249 176.783 181.269 176.815 181.278 176.85C181.287 176.885 181.286 176.922 181.273 176.956C181.261 176.99 181.239 177.019 181.209 177.04C181.18 177.061 181.144 177.072 181.108 177.073Z" fill="#13005E"/>
<path d="M534.579 151.738C534.532 151.738 534.487 151.719 534.454 151.686C534.421 151.652 534.402 151.607 534.402 151.56C534.402 151.524 534.402 151.446 534.402 151.34C534.309 150.721 534.125 149.456 534.643 148.803C534.674 148.77 534.715 148.75 534.76 148.747C534.804 148.744 534.848 148.758 534.883 148.785C534.918 148.813 534.941 148.853 534.948 148.897C534.955 148.941 534.945 148.986 534.92 149.023C534.501 149.556 534.672 150.771 534.75 151.283C534.755 151.375 534.755 151.468 534.75 151.56C534.75 151.606 534.732 151.65 534.7 151.683C534.669 151.716 534.625 151.736 534.579 151.738Z" fill="#F39E97"/>
<defs>
<linearGradient id="paint0_linear_266_872" x1="116.413" y1="136.153" x2="176.237" y2="136.153" gradientUnits="userSpaceOnUse">
<stop offset="0.01" stop-color="#0F0063"/>
<stop offset="1" stop-color="#170083"/>
</linearGradient>
<linearGradient id="paint1_linear_266_872" x1="21321.9" y1="111888" x2="15699.7" y2="60214.2" gradientUnits="userSpaceOnUse">
<stop offset="0.01" stop-color="#0F0063"/>
<stop offset="1" stop-color="#170083"/>
</linearGradient>
<linearGradient id="paint2_linear_266_872" x1="263.131" y1="309.233" x2="359.69" y2="309.233" gradientUnits="userSpaceOnUse">
<stop stop-color="#4C46D3"/>
<stop offset="0.98" stop-color="#615FF4"/>
</linearGradient>
<linearGradient id="paint3_linear_266_872" x1="558.54" y1="195.088" x2="472.659" y2="315.664" gradientUnits="userSpaceOnUse">
<stop stop-color="#A9A8E1"/>
<stop offset="0.98" stop-color="#E1E0F4"/>
</linearGradient>
</defs>
</svg>