<svg viewBox="0 0 638 515" fill="none" xmlns="http://www.w3.org/2000/svg">
<path d="M338.252 49.554C338.173 52.0159 337.264 52.8894 336.611 53.1894C336.241 53.3129 335.967 53.3571 335.967 53.3571C335.967 53.6659 335.949 53.9659 335.949 54.2659C335.941 54.6277 335.879 54.9718 335.843 55.3336C335.799 55.7307 335.72 56.1718 335.632 56.6307C335.632 56.6483 335.614 56.6748 335.614 56.6925C335.561 56.9572 335.508 57.1954 335.438 57.4513C335.438 57.4689 335.438 57.469 335.438 57.469C335.393 57.6366 335.341 57.8219 335.288 57.9807C335.261 58.0425 335.243 58.1042 335.226 58.166C335.093 58.6072 334.908 59.0484 334.696 59.4719C334.643 59.5602 334.599 59.6572 334.564 59.7455C334.335 60.1867 334.07 60.6102 333.752 61.0249C333.69 61.1044 333.629 61.1749 333.549 61.2543V61.2632C331.679 63.5044 329.332 64.0074 328.264 65.3133C328.079 65.3574 327.884 65.3751 327.699 65.4015C327.099 65.4809 326.499 65.5427 325.881 65.525C325.043 65.4986 324.284 65.375 323.578 65.225C321.214 64.7221 319.493 63.5309 318.24 61.572C317.322 60.1602 316.678 58.3248 316.193 56.0748C316.193 56.0483 316.175 56.0307 316.175 55.9954C315.231 51.5041 315.046 46.4657 315.425 42.8656C316.158 42.7597 316.793 42.0538 316.872 41.0214C316.996 39.1155 318.84 37.1566 319.599 39.1155C320.358 41.0832 321.62 45.1421 325.881 45.7862C330.126 46.4127 335.199 44.6392 335.711 46.1657C335.711 46.1833 338.376 45.6716 338.252 49.554Z" fill="#ECB7B0"/>
<path d="M628.97 297.891C628.749 296.329 627.708 289.729 625.59 286.049C625.59 286.049 607.06 288.458 584.471 289.861C561.873 291.255 546.273 289.473 541.958 281.231C537.643 272.981 533.708 253.436 531.678 240.368C531.281 237.801 530.876 235.268 530.487 232.859C528.449 234.501 527.099 235.312 527.099 235.312C527.099 235.312 523.772 235.162 521.496 232.974C519.21 230.786 519.687 228.977 519.687 228.977C519.687 228.977 523.737 223.7 527.77 216.553C527.593 215.556 527.496 214.982 527.496 214.982C523.878 218.883 517.022 222.218 501.413 223.453C487.489 224.556 477.615 222.183 475.621 221.653C474.439 223.603 463.515 249.245 457.815 265.11C452.097 280.976 448.294 294.811 452.988 316.006C457.682 337.201 465.747 352.766 474.315 368.949C481.259 382.034 485.609 388.476 485.609 388.476C485.609 388.476 487.895 389.993 492.095 388.476C496.277 386.949 497.036 386.19 497.036 386.19C497.036 386.19 497.001 386.084 496.93 385.908C495.81 382.652 484.515 349.607 480.659 324.9C476.6 298.879 477.103 293.682 480.915 283.782C484.727 273.881 494.751 254.081 496.022 254.337C497.292 254.592 510.307 276.67 519.66 289.614C529.023 302.559 538.79 309.67 563.029 309.538C587.268 309.406 618.496 303.07 629.022 298.244C629.014 298.235 629.005 298.102 628.97 297.891Z" fill="#0F0063"/>
<path d="M209.381 102.373C209.381 102.373 211.128 110.253 212.425 109.706C214.199 108.947 211.763 102.762 213.281 103.9C214.799 105.038 219.767 112.944 220.984 111.612C222.211 110.279 216.413 102.956 217.084 102.382C217.746 101.809 224.884 108.471 226.217 106.662C227.549 104.853 219.369 99.4262 219.652 98.5702C219.934 97.7143 226.402 100.185 226.79 98.5702C227.17 96.9467 218.981 95.6231 219.272 94.7584C219.555 93.9025 223.358 95.2349 223.358 93.6201C223.358 91.9965 214.861 91.6348 214.861 91.6348C214.861 91.6348 213.563 95.2349 211.94 97.6173C210.325 99.9909 209.381 102.373 209.381 102.373Z" fill="#ECB7B0"/>
<path d="M519.678 228.968C517.966 228.491 513.872 227.635 513.687 228.968C513.493 230.3 517.596 230.009 517.596 230.583C517.596 231.156 511.207 235.533 511.878 236.962C512.549 238.392 518.452 233.724 518.637 234.112C518.831 234.491 512.743 239.247 513.502 240.483C514.26 241.718 520.261 236.671 520.261 236.671C520.261 236.671 516.837 239.636 517.216 240.677C517.596 241.718 521.972 238.383 521.972 238.383C521.972 238.383 520.261 240.959 520.737 241.339C521.214 241.718 526.923 235.674 527.496 234.791C527.496 234.791 524.161 234.006 521.875 232.285C519.581 230.582 519.678 228.968 519.678 228.968Z" fill="#ECB7B0"/>
<path d="M113.413 29.2414C112.293 31.4209 110.899 32.9563 109.452 34.0063C107.484 35.4446 105.375 36.0004 103.601 36.1063C102.913 36.1504 102.296 36.1152 101.74 36.0622C99.1542 35.7446 96.2601 34.7916 94.9983 31.1297C94.7071 30.3268 94.5041 29.3914 94.3982 28.3149C94.2923 27.1237 94.2394 25.9413 94.2747 24.7678C94.3541 20.8677 95.113 17.0646 96.2071 13.7822C97.6454 13.8439 99.1366 12.8998 100.487 12.2645C103.151 11.0291 107.334 10.3585 108.093 13.0233C108.86 15.6881 109.531 19.6941 108.675 21.7765C107.819 23.8766 108.772 22.4471 109.999 21.7765C111.234 21.1059 112.955 24.256 112.099 25.7825C111.234 27.309 109.707 28.1561 111.34 29.1179C112.028 29.4973 112.699 29.6032 113.413 29.2414Z" fill="#ECB7B0"/>
<path d="M12.037 52.0425C11.9223 52.0072 11.8253 51.8484 11.7547 51.6014C11.3576 50.9925 10.9958 50.4366 10.7311 50.0396C11.0841 51.5837 11.0046 53.0749 10.0517 53.4455C9.65459 53.6044 8.86929 52.4043 8.2428 50.9219L7.80161 51.2308C8.59575 52.9867 8.99282 54.7956 8.34868 55.2456C7.92514 55.5456 6.71627 54.3014 5.66624 52.7308L5.22505 53.0485C5.89566 54.6367 6.18686 56.2603 5.40154 56.7721C4.84564 57.1251 3.98973 55.9338 3.26618 54.425L2.72793 54.8044C3.61914 56.2338 4.58974 57.4339 4.21914 57.7251C3.91913 57.9721 2.73675 56.7986 2.29556 56.525L4.59857 61.0516C4.59857 61.0516 5.15446 60.584 6.71627 59.8251L14.0577 55.5368C14.1724 55.4485 13.0694 53.6573 12.037 52.0425Z" fill="#ECB7B0"/>
<path d="M11.3224 53.3309C12.6195 53.728 14.1019 47.216 12.4871 46.7395C11.093 46.3248 10.5812 51.3544 11.0488 52.8897C11.1282 53.0397 11.2253 53.1897 11.3224 53.3309Z" fill="#F3BFBC"/>
<path d="M12.037 52.0428C11.9399 51.8927 11.8429 51.7427 11.7546 51.6016C11.8164 51.8398 11.9135 51.9986 12.037 52.0428Z" fill="#ECB7B0"/>
<path d="M10.7311 50.0391C10.2458 47.895 8.9222 45.6361 7.87217 46.0243C6.83097 46.4038 7.3957 48.9274 8.24278 50.9304C8.86927 52.4128 9.65458 53.6128 10.0516 53.4539C11.0046 53.0745 11.084 51.5833 10.7311 50.0391Z" fill="#F3BFBC"/>
<path d="M7.80165 51.2395C6.83104 49.0865 5.25158 47.0129 4.25449 47.6394C3.24858 48.2747 4.34272 50.7718 5.66629 52.7395C6.72514 54.3102 7.934 55.5455 8.34872 55.2543C8.98404 54.8043 8.58697 52.9954 7.80165 51.2395Z" fill="#F3BFBC"/>
<path d="M5.21624 53.0573C4.4221 51.2043 3.11619 49.3955 2.33969 49.4484C1.50143 49.5013 2.24263 52.2896 3.25736 54.425C3.98091 55.9427 4.83682 57.1251 5.39271 56.7721C6.17803 56.2692 5.88685 54.6456 5.21624 53.0573Z" fill="#F3BFBC"/>
<path d="M3.36326 54.3367C2.40147 52.8013 1.10437 51.3542 0.327875 51.5837C-0.889807 51.9366 1.54555 56.3573 3.35443 57.4427C3.79562 57.7074 4.20151 57.7868 4.50152 57.5397C4.85447 57.2485 4.24564 55.7573 3.36326 54.3367Z" fill="#F3BFBC"/>
<path d="M116.493 8.72653C110.872 2.26752 105.075 0.555721 98.5101 0.0262937C93.8599 -0.344305 89.9422 3.2205 92.3246 9.59127C93.4893 12.7149 94.8305 13.712 96.2159 13.7737C97.663 13.8443 99.1454 12.8914 100.513 12.2649C103.178 11.0295 107.36 10.3589 108.128 13.0237C108.887 15.6885 109.557 19.6857 108.693 21.7769C107.837 23.8682 108.799 22.4387 110.025 21.7769C111.26 21.1151 112.981 24.2476 112.116 25.7741C111.26 27.2918 109.743 28.1565 111.357 29.1006C112.037 29.4977 112.699 29.6036 113.422 29.233C114.446 28.7124 115.575 27.2212 116.969 24.1505C119.352 18.9268 122.114 15.1855 116.493 8.72653Z" fill="#13005E"/>
<path d="M103.601 36.1069C103.804 36.901 104.078 37.8893 104.272 38.5952C104.413 39.1158 104.519 39.4864 104.519 39.4864L109.443 38.8158V38.2599V34.0068C107.484 35.4451 105.375 36.001 103.601 36.1069Z" fill="#ECB7B0"/>
<path d="M214.861 91.6345C214.861 91.6345 193.066 70.4221 179.733 58.3688C166.409 46.3067 151.938 36.2829 141.658 36.4064C133.038 36.5123 78.1977 39.4771 74.6506 42.4948C71.2358 45.389 58.406 61.6601 53.3323 67.8809C48.2498 74.0928 43.0438 82.5989 34.7935 75.2399C26.5521 67.8809 14.0488 55.5364 14.0488 55.5364C11.5076 57.0188 8.64866 58.4394 6.70742 59.8247L4.58972 61.0513C4.58972 61.0513 18.4254 82.4754 27.1786 90.8492C35.9406 99.2229 44.5703 101.129 54.2059 93.6375C63.8591 86.1461 75.7888 70.1574 78.0742 68.0044C80.3596 65.8514 82.2655 65.9749 86.5803 75.2399C90.5951 83.8607 105.701 115.423 107.784 119.782C107.943 120.109 108.04 120.294 108.04 120.294C108.04 120.294 118.064 122.579 136.47 119.279C154.876 115.979 161.6 111.753 161.6 111.753C161.6 111.753 150.182 85.5196 145.735 75.6193C141.288 65.719 137.485 58.4835 141.288 56.9658C145.091 55.4393 163.497 68.5162 174.033 76.7664C184.568 85.0167 209.381 102.373 209.381 102.373C209.381 102.373 210.043 100.123 212.663 96.4434C215.275 92.7551 214.861 91.6345 214.861 91.6345Z" fill="#FDC130"/>
<path d="M250.685 138.066C245.55 134.069 239.744 130.168 239.744 130.168C238.129 131.589 236.17 135.745 235.923 136.195C236.514 135.127 236.841 134.51 236.841 134.51L246.37 140.978C246.3 141.304 246.141 141.798 245.929 142.425C247.756 143.104 254.268 145.451 255.256 144.719C256.394 143.872 255.821 142.063 250.685 138.066Z" fill="#13005E"/>
<path d="M96.1719 292.923C92.4659 293.673 86.3245 296.294 86.4922 298.447C86.6863 300.829 107.907 298.164 109.619 297.882C109.619 297.882 110.475 293.779 108.331 292.508C108.296 292.526 101.996 294.953 96.1719 292.923Z" fill="#13005E"/>
<path d="M236.841 134.518C236.841 134.518 236.514 135.136 235.923 136.204C233.638 140.324 227.311 151.495 219.846 162.693C210.449 176.784 200.804 191.379 193.692 189.596C186.58 187.823 180.748 163.451 175.039 146.06C169.33 128.677 161.591 111.753 161.591 111.753C161.591 111.753 154.868 115.98 136.461 119.28C118.055 122.58 108.031 120.294 108.031 120.294C108.031 120.294 107.934 120.109 107.775 119.783C107.775 119.783 92.4129 143.016 81.1185 158.378C69.824 173.731 61.1944 183.764 64.4945 200.132C67.7946 216.5 75.6566 242.645 81.6215 259.781C87.5952 276.917 95.5983 292.729 96.1013 292.914C96.1189 292.923 96.1454 292.923 96.163 292.932C101.987 294.961 108.287 292.526 108.331 292.517C108.331 292.517 96.6042 241.004 94.0718 224.38C91.5306 207.756 88.9893 192.393 100.672 177.296C112.346 162.19 129.358 143.413 130.62 142.142C131.882 140.871 135.694 142.521 142.417 154.963C149.15 167.396 170.345 207.376 184.807 213.465C199.278 219.553 213.175 210.032 222.802 196.144C229.596 186.34 242.911 151.257 245.92 142.451C246.132 141.824 246.282 141.321 246.362 141.004L236.841 134.518Z" fill="#51B6A5"/>
<path d="M391.151 169.699C391.336 169.919 391.469 170.052 391.469 170.052C391.469 170.052 391.336 169.911 391.151 169.699Z" fill="#ECB7B0"/>
<path d="M397.645 170.052C397.08 169.099 395.748 163.866 394.698 163.954C393.657 164.043 394.698 167.572 394.698 167.572C394.698 167.572 391.46 162.243 390.321 162.816C389.183 163.39 392.801 168.702 392.801 168.702C392.801 168.702 388.707 164.051 387.851 164.625C387.136 165.102 390.154 168.587 391.151 169.699C391.345 169.91 391.469 170.052 391.469 170.052C391.469 170.052 391.345 169.919 391.151 169.699C390.348 168.843 388.283 166.743 387.745 167.581C387.057 168.613 390.613 172.337 390.613 172.337C390.613 172.337 387.657 170.06 387.904 170.713C388.142 171.375 392.13 176.528 392.13 176.528C393.842 172.143 397.645 170.052 397.645 170.052Z" fill="#ECB7B0"/>
<path d="M546.423 186.323C541.658 170.899 535.949 152.051 519.008 147.489C509.946 145.036 500.989 143.942 492.148 144.128C491.292 145.981 489.863 147.939 488.821 147.869C487.939 147.807 487.604 146.289 487.48 144.339C481.392 144.78 475.365 145.831 469.409 147.489C453.323 151.963 454.188 151.769 449.52 161.863C444.853 171.949 437.617 189.473 431.149 190.232C424.673 190.991 413.158 185.37 407.731 180.905C402.304 176.431 397.636 170.052 397.636 170.052C397.636 170.052 393.833 172.143 392.113 176.52C391.539 177.993 400.019 193.558 412.866 201.456C425.723 209.353 441.429 208.021 449.141 200.026C456.844 192.032 458.556 185.185 460.753 179.617C462.941 174.049 465.694 169.099 466.938 173.096C468.174 177.093 469.409 185.088 471.703 197.556C473.989 210.024 475.224 221.539 475.224 221.539C475.224 221.539 475.374 221.583 475.612 221.644C477.598 222.174 487.48 224.547 501.404 223.445C517.005 222.209 523.861 218.874 527.487 214.974C527.487 214.974 523.87 195.173 521.39 184.514C518.919 173.855 517.781 170.422 519.202 169.566C520.631 168.711 527.381 178.514 531.387 187.179C535.385 195.835 536.152 198.976 531.387 209.45C530.267 211.929 529.005 214.321 527.761 216.544C523.728 223.692 519.678 228.968 519.678 228.968C519.678 228.968 519.202 230.777 521.487 232.965C523.764 235.154 527.09 235.304 527.09 235.304C527.09 235.304 528.44 234.492 530.479 232.851C533.523 230.398 538.102 226.074 542.135 219.641C548.903 208.885 551.179 201.747 546.423 186.323Z" fill="#51B6A5"/>
<path d="M487.41 136.804C486.095 139.266 484.26 140.854 481.092 140.792C479.045 140.748 477.88 140.413 477.227 140.669C476.724 140.069 476.256 139.327 475.806 138.427C475.577 137.942 475.347 137.413 475.136 136.83C474.818 135.974 474.562 135.092 474.342 134.183C473.274 129.754 473.415 124.989 473.971 122.562C476.83 122.624 479.909 120.974 483.157 121.689C487.33 122.598 488.089 124.989 488.451 126.321C488.495 126.48 488.548 126.612 488.574 126.762C488.91 129.886 488.707 134.316 487.41 136.804Z" fill="#ECB7B0"/>
<path d="M490.613 133.019C492.007 131.969 492.704 130.089 492.077 128.324C491.442 126.568 490.674 125.88 489.792 127.592C489.607 127.945 489.474 128.121 489.351 128.218C489.368 128.739 489.43 129.515 489.598 130.636C489.783 131.933 489.898 132.692 489.845 133.786C489.863 133.777 489.889 133.769 489.907 133.76C490.021 133.548 490.233 133.31 490.613 133.019Z" fill="#ECB7B0"/>
<path d="M492.554 136.919C492.316 134.633 490.295 134.58 490.145 134.58C490.074 134.58 489.889 134.466 489.819 134.254C489.748 135.048 489.598 136.045 489.342 137.492C489.06 139.063 488.336 140.492 487.41 141.666C487.418 142.592 487.436 143.501 487.489 144.339C487.613 146.298 487.939 147.869 488.83 147.869C491.31 147.869 492.616 143.069 492.73 142.601C493.03 141.551 492.827 139.089 492.554 136.919Z" fill="#ECB7B0"/>
<path d="M489.845 133.91C489.854 133.874 489.871 133.839 489.898 133.804C489.889 133.813 489.863 133.821 489.854 133.83C489.845 133.848 489.845 133.874 489.845 133.91Z" fill="#ECB7B0"/>
<path d="M489.219 134.068C489.219 134.068 489.166 134.271 489.069 134.624C489.174 134.316 489.483 134.051 489.845 133.83C489.845 133.813 489.845 133.804 489.845 133.795C489.483 133.98 489.219 134.068 489.219 134.068Z" fill="#13005E"/>
<path d="M488.989 134.881C489.007 134.793 489.051 134.695 489.069 134.625C489.033 134.687 489.016 134.784 488.989 134.881Z" fill="#13005E"/>
<path d="M489.333 127.671C489.342 127.495 489.342 127.406 489.342 127.406L489.157 127.256C489.21 127.645 489.21 127.883 489.21 127.883C489.254 127.795 489.298 127.75 489.333 127.671Z" fill="#13005E"/>
<path d="M494.23 117.383C491.38 112.371 486.624 111.295 483.501 112.115C480.395 112.936 476.018 115.671 474.174 114.339C472.339 113.006 471.192 112.371 469.409 113.704C466.788 115.671 467.98 120.18 471.509 121.989C472.312 122.404 473.124 122.554 473.962 122.571C476.821 122.633 479.909 121.001 483.148 121.707C487.321 122.624 488.071 125.007 488.451 126.339C488.495 126.48 488.53 126.63 488.566 126.78C488.892 129.895 488.707 134.342 487.401 136.813C486.104 139.284 484.268 140.872 481.092 140.81C479.036 140.775 477.862 140.422 477.227 140.695C476.874 140.845 476.68 141.163 476.592 141.834C476.336 143.74 479.477 145.204 482.362 144.878C484.101 144.684 486.007 143.475 487.418 141.693C488.354 140.519 489.069 139.09 489.351 137.519C489.607 136.063 489.757 135.075 489.827 134.281C489.889 134.492 490.074 134.607 490.154 134.607C490.304 134.607 492.324 134.66 492.563 136.937C492.81 139.213 494.433 139.037 494.751 135.172C495.051 131.28 497.08 122.395 494.23 117.383ZM490.613 133.019C490.233 133.301 490.021 133.548 489.907 133.751C489.898 133.76 489.783 131.933 489.598 130.636C489.43 129.525 489.369 128.739 489.351 128.219C489.474 128.122 489.607 127.936 489.792 127.592C490.683 125.88 491.442 126.569 492.077 128.325C492.704 130.089 492.007 131.978 490.613 133.019Z" fill="url(#paint0_linear_266_746)"/>
<path d="M636.752 300.644C635.799 294.361 631.802 285.802 629.014 284.337C629.014 284.337 625.899 285.229 625.59 286.049C627.708 289.72 628.749 296.329 628.969 297.891C629.217 300.52 631.802 305.276 633.84 306.547C635.87 307.817 637.705 306.926 636.752 300.644Z" fill="#B5613F"/>
<path d="M492.077 388.467C487.877 389.985 485.592 388.467 485.592 388.467C485.592 388.467 480.836 390.117 478.418 392.146C476.009 394.185 475.506 395.067 480.324 395.897C485.142 396.717 498.342 393.355 499.745 391.326C499.745 391.326 498.66 387.205 496.913 385.899C496.975 386.076 497.019 386.182 497.019 386.182C497.019 386.182 496.26 386.94 492.077 388.467Z" fill="#B5613F"/>
<path d="M281.798 114.947C280.412 113.262 278.021 111.074 275.242 109.9C274.483 109.574 273.689 109.335 272.859 109.221C272.859 109.221 272.1 113.986 265.333 115.318C258.582 116.65 245.779 112.238 234.211 106.944C233.858 106.777 231.705 102.523 230.602 102.753C229.738 102.938 231.652 105.418 231.361 106.088C231.079 106.75 226.182 101.421 225.652 102.726C225.131 104.041 229.173 107.606 228.89 108.082C228.608 108.559 223.543 104.8 222.881 105.921C222.22 107.041 227.558 110.085 227.461 110.562C227.364 111.038 223.031 107.897 222.82 109.23C222.608 110.562 227.743 113.421 227.743 113.421C227.743 113.421 224.505 113.041 224.505 113.421C224.505 113.8 225.626 114.374 233.038 118.468C240.467 122.553 252.432 126.762 262.297 128.465C272.198 130.177 276.398 127.671 279.998 123.515C283.139 119.898 284.374 118 284.374 118C284.374 118 283.333 116.509 281.798 114.947Z" fill="#ECB7B0"/>
<path d="M327.717 66.4961C327.717 66.1167 327.708 65.7549 327.699 65.4108C327.099 65.4991 326.499 65.552 325.881 65.5343C325.043 65.5079 324.293 65.402 323.587 65.2432C323.543 67.0432 323.455 68.605 323.552 69.7609C323.631 70.6698 323.825 71.3316 324.276 71.6316C325.273 72.3022 326.861 71.9404 327.434 70.1668C327.496 69.9639 327.54 69.7345 327.576 69.4962C327.514 68.2256 327.611 67.1667 327.717 66.4961Z" fill="#ECB7B0"/>
<path d="M365.862 134.545C368.236 141.207 372.612 152.06 374.324 157.866C376.036 163.672 376.812 165.578 375.939 166.717C375.083 167.864 373.08 172.143 374.139 172.62C375.18 173.096 376.327 168.817 376.989 169.293C377.651 169.77 379.08 177.288 380.13 176.149C381.18 175.002 379.177 169.108 380.13 169.673C381.083 170.246 382.61 180.429 383.942 179.573C385.274 178.717 383.563 170.82 383.942 171.005C384.321 171.19 386.227 178.435 387.083 177.949C387.939 177.473 386.501 170.528 386.501 170.528C386.501 170.528 387.842 174.526 388.504 173.573C389.174 172.62 385.371 165.384 385.46 164.149C385.557 162.914 384.798 153.296 382.707 142.637C380.607 131.977 377.845 125.315 377.845 125.315C377.845 125.315 373 126.648 365.862 134.545Z" fill="#ECB7B0"/>
<path d="M362.906 84.6639C360.047 79.2549 358.062 76.1225 353.429 74.1812C353.165 75.1607 352.759 76.1754 352.15 77.2078C348.788 82.9874 340.538 85.7139 333.752 81.0814C329.164 77.949 327.858 73.493 327.602 70.1841C327.54 70.1752 327.487 70.1664 327.426 70.1664C326.852 71.94 325.264 72.2929 324.267 71.6312C323.817 71.34 323.631 70.6782 323.543 69.7605C312.778 68.6399 301.837 67.6516 296.851 67.6958C288.477 67.7575 286.66 73.7224 282.671 83.6227C278.674 93.523 273.724 106.273 272.868 109.229C272.868 109.229 273.698 109.15 275.251 109.909C279.857 111.859 284.392 117.991 284.392 117.991C287.533 111.515 290.675 102.188 292.483 96.1966C294.292 90.1964 295.528 87.3463 296.295 87.6287C297.054 87.9199 296.578 91.4405 293.63 95.7201C290.683 99.9996 293.251 103.529 294.681 105.806C296.11 108.091 296.966 113.703 297.919 119.606C298.872 125.509 297.734 131.509 297.734 131.509C297.734 131.509 303.637 135.701 322.961 136.46C342.285 137.218 346 132.842 346 132.842C343.997 128.368 343.9 119.518 344.473 110.376C345.056 101.244 345.329 96.576 347.42 95.7201C349.511 94.8642 351.903 100.291 356.085 109.423C360.277 118.556 365.897 134.554 365.897 134.554C373.036 126.656 377.889 125.324 377.889 125.324C375.859 110.941 367.283 92.9494 362.906 84.6639Z" fill="#8764B5"/>
<path d="M349.997 65.5432C346.891 64.899 341.111 61.3519 343.088 58.5635C345.047 55.7664 347.526 51.831 343.714 49.1662C339.902 46.5014 336.417 45.8661 337.238 40.5983C338.067 35.3305 335.526 29.7892 326.773 29.3656C318.011 28.9421 315.54 33.1157 315.54 33.1157C313.828 35.0217 312.884 39.7159 313.758 41.7454C314.172 42.6719 314.825 42.9807 315.425 42.8925C316.14 42.7778 316.802 42.0895 316.864 41.0483C316.996 39.1424 318.831 37.1747 319.599 39.1424C320.358 41.1101 321.628 45.169 325.881 45.8043C330.135 46.4397 335.208 44.6661 335.72 46.1838C335.72 46.1838 338.376 45.672 338.252 49.5456C338.173 52.0251 337.264 52.8898 336.611 53.1899C336.249 53.3575 335.967 53.3575 335.967 53.3575C335.967 53.3575 335.976 53.7104 335.949 54.2752C335.914 54.8752 335.835 55.7135 335.632 56.64C335.623 56.6576 335.623 56.6752 335.623 56.7017C335.543 57.1252 335.42 57.5576 335.279 57.9988C335.261 58.0606 335.252 58.1135 335.226 58.1753C335.085 58.6165 334.899 59.0577 334.696 59.49C334.652 59.5871 334.608 59.6665 334.555 59.7636C334.326 60.2047 334.07 60.6371 333.761 61.043C331.846 63.496 329.376 63.9902 328.273 65.349C328.017 65.6755 327.805 66.0373 327.726 66.5049V66.5138C327.726 67.4491 327.708 68.4638 327.602 69.355C327.593 69.408 327.584 69.4521 327.567 69.505C327.576 69.7256 327.584 69.955 327.602 70.1933C327.858 73.5022 329.164 77.9582 333.752 81.0907C340.538 85.7231 348.788 82.9966 352.15 77.217C352.75 76.1846 353.165 75.1699 353.429 74.1905C354.629 69.708 352.547 66.0726 349.997 65.5432Z" fill="#35270E"/>
<path d="M327.717 66.4961C327.611 67.1667 327.505 68.2167 327.558 69.4962C327.567 69.4432 327.584 69.3991 327.593 69.3462C327.699 68.455 327.726 67.4314 327.717 66.4961Z" fill="#13005E"/>
<path d="M335.843 55.3338C335.799 55.7308 335.72 56.172 335.632 56.6397C335.826 55.7044 335.905 54.8661 335.949 54.2749C335.941 54.6455 335.879 54.9808 335.843 55.3338Z" fill="#13005E"/>
<path d="M244.023 301.403C240.6 300.07 239.452 298.261 239.452 298.261C239.452 298.261 239.549 298.094 239.717 297.776C238.394 297.405 237.026 297.07 235.649 296.832C228.802 295.597 226.129 296.92 225.652 297.688C225.176 298.447 232.12 302.073 237.555 304.544C242.973 307.014 246.114 308.541 247.164 307.491C248.214 306.45 249.353 303.776 249.45 302.064C249.441 302.073 247.456 302.735 244.023 301.403Z" fill="#A9A8E1"/>
<path d="M343.203 182.052C340.079 187.788 334.432 195.297 328.44 202.7C321.646 211.153 314.455 219.448 310.122 224.936C310.016 225.068 309.893 225.227 309.787 225.342C301.792 235.533 284.763 259.719 274.756 272.47C264.768 285.211 249.441 302.074 249.441 302.074C249.441 302.074 247.447 302.726 244.014 301.403C240.6 300.079 239.444 298.27 239.444 298.27C239.444 298.27 239.549 298.094 239.717 297.785C242.267 293.17 262.738 256.207 271.915 240.783C281.718 224.301 295.325 199.285 295.325 199.285C295.316 199.25 295.289 199.232 295.289 199.206C295.219 199.073 295.157 198.932 295.078 198.8C290.886 190.064 289.245 170.776 290.101 158.255C290.957 145.504 296.366 134.448 297.716 131.51C297.716 131.51 303.61 135.701 322.934 136.46C342.25 137.219 345.964 132.833 345.964 132.833C345.964 132.833 350.147 139.689 352.441 150.304C354.709 160.911 349.97 169.576 343.203 182.052Z" fill="#B5B348"/>
<path d="M413.352 221.353C410.21 216.023 405.931 209.264 405.269 208.691C404.598 208.126 399.745 211.55 398.51 212.503L406.981 225.924C406.981 225.924 406.831 226.03 406.575 226.215C410.59 230.724 415.716 233.256 416.89 231.915C418.116 230.494 416.502 226.683 413.352 221.353Z" fill="#A9A8E1"/>
<path d="M406.972 225.924C406.972 225.924 406.831 226.03 406.575 226.215C403.734 228.289 385.998 241.083 374.995 246.669C363.003 252.757 346.256 256.86 333.223 250.675C321.205 244.974 311.772 228.774 310.334 225.483C310.246 225.306 310.193 225.174 310.166 225.086C310.166 225.086 310.166 225.086 310.166 225.068C310.149 225.006 310.14 224.962 310.14 224.936C314.472 219.456 321.664 211.153 328.458 202.7C328.484 202.779 328.502 202.85 328.537 202.929C328.582 203.053 328.626 203.185 328.679 203.326C329.958 206.935 333.408 215.141 340.732 222.403C350.447 232.012 363.021 230.777 377.236 224.786C391.46 218.785 398.51 212.512 398.51 212.512L406.972 225.924Z" fill="#B5B348"/>
<path d="M586.501 515C584.815 515 583.457 513.641 583.457 511.956V477.305H507.695C506.01 477.305 504.651 475.946 504.651 474.261V420.197H436.876C435.199 420.197 433.832 418.838 433.832 417.153V364.228H370.239C368.553 364.228 367.186 362.86 367.186 361.184V308.259H323.137V359.657C323.137 361.343 321.77 362.701 320.093 362.701H261.724V411.815C261.724 413.5 260.356 414.859 258.679 414.859H183.668C181.983 414.859 180.624 413.5 180.624 411.815V364.607H122.378C120.702 364.607 119.334 363.24 119.334 361.563V313.968H69.074C67.3886 313.968 66.021 312.6 66.021 310.923V259.146H10.4223C8.74577 259.146 7.37807 257.778 7.37807 256.101C7.37807 254.416 8.74577 253.057 10.4223 253.057H69.0652C70.7505 253.057 72.1094 254.416 72.1094 256.101V307.879H122.37C124.046 307.879 125.414 309.247 125.414 310.923V358.519H183.668C185.345 358.519 186.713 359.878 186.713 361.563V408.77H255.626V359.657C255.626 357.972 256.994 356.613 258.679 356.613H317.049V305.215C317.049 303.529 318.408 302.17 320.093 302.17H370.239C371.915 302.17 373.283 303.529 373.283 305.215V358.14H436.867C438.543 358.14 439.911 359.498 439.911 361.184V414.1H507.687C509.363 414.1 510.731 415.468 510.731 417.153V471.216H586.492C588.177 471.216 589.536 472.584 589.536 474.261V511.956C589.545 513.641 588.177 515 586.501 515Z" fill="url(#paint1_linear_266_746)"/>
<path d="M95.563 17.2946C95.5718 17.2946 95.6247 17.2152 95.8718 17.1005C96.11 16.9858 96.4365 16.8711 96.8777 16.827C97.3189 16.8005 97.9277 16.8093 98.5189 17.2417C99.1542 17.6741 99.3131 18.6358 99.1631 19.3417C98.9513 20.7535 98.5807 22.3418 98.3336 24.0713C98.2189 24.9184 98.113 25.8537 98.2454 26.6831C98.2983 26.8772 98.3689 27.0625 98.4572 27.0625L98.4748 27.0802C98.466 27.0802 98.5278 27.0802 98.4395 27.089L98.4836 27.0802L98.6513 27.0449C98.7219 26.9831 98.7307 27.0008 98.8013 26.9214C99.0572 26.6478 99.2337 26.2066 99.3925 25.7919C99.9748 24.0536 100.248 22.1653 100.866 20.4712C101.157 19.6153 101.616 18.7858 102.234 18.1593C102.851 17.5329 103.584 17.0475 104.422 16.8887C105.269 16.7034 106.152 17.1711 106.549 17.7093C106.752 17.9829 106.91 18.2476 106.99 18.5123C107.104 18.7682 107.149 19.0064 107.184 19.227C107.299 19.6506 107.254 19.9947 107.272 20.2241C107.272 20.4535 107.272 20.5771 107.272 20.5771C107.272 20.683 107.184 20.7624 107.078 20.7624C106.99 20.7624 106.919 20.7094 106.893 20.63L106.884 20.6124C106.884 20.6124 106.849 20.4977 106.787 20.2947C106.725 20.0918 106.646 19.7741 106.504 19.4211C106.399 19.0594 106.16 18.6447 105.878 18.2829C105.569 17.9388 105.128 17.7534 104.572 17.824C104.016 17.9123 103.407 18.2829 102.887 18.7947C102.375 19.3064 101.934 19.9682 101.616 20.7624C100.963 22.3507 100.54 24.1772 99.9043 25.986C99.719 26.436 99.5513 26.8949 99.1542 27.3008C99.0837 27.3979 98.8631 27.5037 98.7307 27.5567L98.563 27.5743L98.5189 27.5831C98.3866 27.5831 98.4395 27.5743 98.3954 27.5655L98.263 27.5214C98.0513 27.4684 97.9983 27.3008 97.8925 27.1773C97.8395 27.0449 97.7866 26.9125 97.7513 26.789C97.5836 25.7919 97.716 24.8919 97.7865 24.0007C97.9718 22.2359 98.2542 20.6124 98.4395 19.2358C98.5542 18.5741 98.4219 18.0888 98.0689 17.8417C97.7336 17.577 97.2659 17.5152 96.9042 17.4976C96.5424 17.4711 96.2247 17.524 96.0483 17.5505C95.8806 17.577 95.7394 17.6476 95.7483 17.6387C95.6512 17.6829 95.5453 17.6388 95.5012 17.5417C95.4747 17.4799 95.4836 17.4093 95.5189 17.3564L95.563 17.2946Z" fill="#DC847F"/>
<path d="M99.1543 33.2125C98.6866 33.2125 98.2278 33.0361 97.7866 32.6831C97.7072 32.6125 97.6895 32.4978 97.7601 32.4184C97.8219 32.3301 97.9454 32.3213 98.0248 32.3831C98.4925 32.7449 99.2072 33.0713 99.9837 32.5596C100.081 32.4978 100.195 32.5243 100.248 32.6125C100.301 32.7007 100.275 32.8243 100.187 32.8772C99.8602 33.0978 99.5072 33.2125 99.1543 33.2125Z" fill="#DA4F4F"/>
<path d="M109.196 26.2237C109.178 26.2237 109.16 26.2237 109.143 26.2149C109.037 26.1796 108.993 26.0737 109.019 25.9767C109.019 25.959 109.584 24.2648 110.369 23.5236C110.44 23.4531 110.563 23.4531 110.634 23.5236C110.705 23.6031 110.696 23.7178 110.625 23.7972C110.025 24.3619 109.522 25.6502 109.372 26.0914C109.355 26.1708 109.275 26.2237 109.196 26.2237Z" fill="#DC847F"/>
<path d="M336.17 52.016C336.17 52.016 336.152 52.016 336.143 52.016C336.038 51.9984 335.967 51.9013 335.985 51.7954C335.993 51.7248 336.285 50.0219 336.911 49.3248C336.973 49.2454 337.105 49.2366 337.176 49.3071C337.255 49.3777 337.264 49.4924 337.194 49.5718C336.638 50.1983 336.355 51.8396 336.355 51.8572C336.346 51.9543 336.267 52.016 336.17 52.016Z" fill="#DC847F"/>
<path d="M317.164 48.0632C317.172 48.0632 317.199 47.9308 317.384 47.6749C317.561 47.4278 317.825 47.0837 318.258 46.7219C318.699 46.3778 319.281 45.9719 320.128 45.8395C320.967 45.6542 322.114 46.016 322.767 46.8278C323.058 47.1102 323.367 47.5955 323.631 48.0896C323.826 48.5838 323.984 49.0955 324.064 49.6338C324.231 50.7015 324.196 51.8044 324.134 52.9162C324.064 54.028 323.958 55.1575 324.02 56.3046C324.037 56.8693 324.09 57.4517 324.24 57.9634C324.461 58.5458 324.628 58.537 324.823 57.9193C325.105 56.8516 325.167 55.6428 325.246 54.4957C325.308 53.3309 325.343 52.2103 325.493 51.0544C325.599 49.9956 325.961 48.7602 326.579 47.8514C327.214 46.916 328.255 46.2101 329.279 46.1131C329.799 46.0248 330.214 46.0601 330.761 46.1131C331.167 46.2278 331.493 46.2366 331.899 46.4572C332.305 46.6337 332.649 46.8367 332.896 47.0749C333.179 47.2778 333.373 47.5426 333.549 47.7632C333.902 48.222 334.043 48.6367 334.149 48.9102C334.238 49.1926 334.264 49.3603 334.264 49.3603C334.282 49.4661 334.211 49.5544 334.105 49.5808C334.026 49.5897 333.955 49.5544 333.911 49.4838L333.902 49.4661C333.902 49.4661 333.832 49.3514 333.691 49.1308C333.541 48.9191 333.302 48.6102 332.949 48.3014C332.605 47.9926 332.111 47.6484 331.582 47.4808C331.361 47.3396 330.885 47.3308 330.523 47.2337C330.276 47.2425 329.817 47.1984 329.473 47.2602C328.714 47.3131 328.017 47.772 327.496 48.4867C326.976 49.2455 326.587 50.0838 326.402 51.2133C326.19 52.2456 326.076 53.4016 325.926 54.5486C325.767 55.7046 325.723 56.8781 325.343 58.087C325.308 58.237 325.228 58.3958 325.14 58.5458C325.096 58.6252 324.973 58.7399 324.876 58.8105C324.752 58.8546 324.831 58.8723 324.567 58.9076C324.02 58.8723 323.843 58.3958 323.746 58.1311C323.543 57.5134 323.49 56.9222 323.446 56.331C323.384 55.1575 323.384 53.9927 323.384 52.8986C323.384 51.8044 323.331 50.7544 323.12 49.8191C323.023 49.3514 322.846 48.9367 322.696 48.5396C322.493 48.2043 322.343 47.8867 321.99 47.5602C320.975 46.4219 319.581 47.0308 318.761 47.4543C318.346 47.6749 318.011 47.8955 317.799 48.0455C317.605 48.1955 317.472 48.3102 317.481 48.3014C317.393 48.372 317.278 48.3631 317.208 48.2926C317.164 48.2396 317.155 48.169 317.172 48.1161L317.164 48.0632Z" fill="#DC847F"/>
<path d="M325.07 63.1696C324.522 63.1696 323.967 63.0461 323.525 62.9225C323.42 62.8961 323.367 62.7902 323.393 62.6931C323.42 62.5872 323.525 62.5255 323.631 62.5608C324.346 62.7461 325.361 62.9666 326.049 62.5784C326.137 62.5254 326.252 62.5608 326.305 62.649C326.358 62.7372 326.314 62.852 326.234 62.9049C325.881 63.099 325.475 63.1696 325.07 63.1696Z" fill="#DA4F4F"/>
<path d="M473.742 127.459C473.742 127.459 473.768 127.327 473.865 127.106C473.945 126.895 474.174 126.498 474.571 126.171C474.959 125.845 475.789 125.553 476.556 125.95C476.901 126.153 477.218 126.4 477.448 126.718L477.642 126.948C477.756 127.106 477.748 127.124 477.809 127.221C477.889 127.38 477.986 127.548 478.083 127.715C478.789 129.348 478.665 131.192 478.559 133.089C478.506 134.015 478.506 135.039 478.683 135.957C478.745 136.177 478.824 136.389 478.948 136.495C479.001 136.539 479.071 136.574 479.151 136.539C479.221 136.53 479.195 136.557 479.265 136.513C479.336 136.486 479.354 136.451 479.371 136.433C479.609 136.16 479.706 135.604 479.759 135.127C479.998 133.142 479.707 131.086 479.839 129.162C479.892 128.174 480.086 127.23 480.483 126.365C480.854 125.492 481.71 124.795 482.592 124.698L482.918 124.653C482.998 124.653 482.971 124.636 483.13 124.645L483.271 124.671C483.448 124.706 483.624 124.742 483.801 124.777C484.145 124.892 484.551 125.086 484.824 125.28C485.371 125.686 485.733 126.136 485.989 126.515C486.51 127.283 486.668 127.803 486.668 127.803C486.704 127.901 486.66 128.015 486.554 128.042C486.474 128.068 486.368 128.033 486.324 127.953C486.324 127.953 486.077 127.521 485.521 126.868C485.257 126.533 484.877 126.189 484.418 125.862C484.18 125.712 483.977 125.606 483.668 125.509C483.501 125.474 483.324 125.448 483.139 125.421L483.007 125.395C483.086 125.412 482.963 125.412 482.954 125.412L482.707 125.439C482.08 125.509 481.471 125.933 481.127 126.683C480.801 127.406 480.545 128.271 480.465 129.198C480.28 131.077 480.421 133.107 480.192 135.171C480.104 135.683 480.077 136.213 479.654 136.724C479.433 136.945 479.001 137.06 478.709 136.813C478.445 136.592 478.357 136.31 478.268 136.054C478.03 135.013 478.03 134.042 477.995 133.062C477.977 132.109 477.959 131.192 477.862 130.354C477.783 129.498 477.518 128.765 477.289 128.165C477.192 128.006 477.095 127.848 477.006 127.689C476.962 127.627 476.892 127.486 476.892 127.503L476.733 127.336C476.548 127.08 476.336 126.956 476.142 126.833C475.762 126.665 475.418 126.771 475.101 126.921C474.765 127.098 474.553 127.265 474.359 127.424C474.174 127.592 474.068 127.671 474.068 127.671C473.98 127.733 473.856 127.715 473.786 127.627C473.733 127.574 473.724 127.512 473.742 127.459Z" fill="#DC847F"/>
<path d="M479.812 139.945C479.354 139.945 478.974 139.83 478.904 139.804C478.806 139.769 478.745 139.663 478.78 139.557C478.815 139.46 478.921 139.407 479.027 139.442C479.062 139.451 480.121 139.795 480.845 139.248C480.924 139.186 481.048 139.204 481.109 139.283C481.171 139.372 481.154 139.486 481.074 139.557C480.686 139.857 480.218 139.945 479.812 139.945Z" fill="#DA4F4F"/>
<path d="M490.145 130.865C490.039 130.865 489.96 130.786 489.951 130.689C489.898 129.612 490.498 128.491 490.674 128.271C490.745 128.191 490.86 128.174 490.939 128.244C491.019 128.315 491.036 128.43 490.966 128.509C490.824 128.694 490.277 129.736 490.321 130.671C490.33 130.777 490.251 130.874 490.145 130.874V130.865Z" fill="#DC847F"/>
<path d="M329.755 111.223C329.667 111.223 329.587 111.162 329.57 111.073C329.543 110.976 329.614 110.871 329.711 110.844C329.755 110.835 329.861 110.818 330.011 110.8C336.638 109.918 340.538 106.97 340.988 102.497C340.997 102.391 341.067 102.311 341.199 102.329C341.305 102.338 341.376 102.435 341.367 102.541C340.899 107.209 336.893 110.271 330.064 111.179C329.932 111.197 329.834 111.215 329.799 111.215C329.782 111.224 329.773 111.223 329.755 111.223Z" fill="#A9A8E1"/>
<path d="M318.655 158.051C318.469 158.387 300.963 189.014 295.289 199.206C295.219 199.073 295.157 198.932 295.078 198.8C300.875 188.396 318.134 158.21 318.319 157.875C318.381 157.778 318.478 157.751 318.575 157.796C318.672 157.849 318.699 157.954 318.655 158.051Z" fill="#13005E"/>
<path d="M328.661 203.326C324.072 208.532 313.44 221.618 310.325 225.482C310.237 225.306 310.184 225.173 310.157 225.085C310.157 225.085 310.157 225.085 310.157 225.068C313.475 220.973 324.028 207.994 328.52 202.929C328.564 203.052 328.617 203.185 328.661 203.326Z" fill="#13005E"/>
<path d="M496.004 254.513C495.942 254.513 495.88 254.478 495.845 254.425L490.666 246.051C490.613 245.954 490.639 245.839 490.727 245.786C490.816 245.725 490.939 245.76 490.992 245.848L496.163 254.231C496.225 254.319 496.198 254.434 496.101 254.487C496.083 254.504 496.039 254.513 496.004 254.513Z" fill="#DC847F"/>
<path d="M97.1689 29.4628C96.9924 30.9011 95.8012 31.2628 94.9983 31.1217C94.7071 30.3187 94.5041 29.3834 94.3982 28.3069C94.2923 27.1157 94.2394 25.9333 94.2747 24.7597C96.2512 24.4685 97.3807 27.7774 97.1689 29.4628Z" fill="#F39E97"/>
<path d="M105.516 26.8505C103.778 27.1682 102.569 28.2447 102.913 30.9448C103.266 33.6449 105.737 34.3684 107.669 33.0184C109.602 31.6771 109.196 26.1888 105.516 26.8505Z" fill="#F39E97"/>
<path d="M95.0424 19.5002C94.7248 19.0767 95.9954 17.7707 96.9748 18.2384C97.9631 18.7149 98.4749 20.5149 97.9896 21.0091C97.5131 21.5032 97.5395 19.809 97.5395 19.809C97.5395 19.809 97.0719 20.8502 96.463 20.3473C95.863 19.8443 96.7278 18.9972 96.7278 18.9972C96.7278 18.9972 96.3572 18.6443 95.8895 18.9972C95.4483 19.359 95.0424 19.5002 95.0424 19.5002Z" fill="#361410"/>
<path d="M102.498 21.0445C102.163 20.7798 103.39 18.7944 104.916 19.1386C106.443 19.4915 106.822 22.2622 106.346 22.2357C105.869 22.2181 106.354 21.2916 105.701 20.7886C105.701 20.7886 105.375 22.5092 104.501 22.2357C103.619 21.9622 104.625 20.0121 104.625 20.0121C104.625 20.0121 104.254 19.8709 103.601 20.3121C102.94 20.7621 102.79 21.2739 102.498 21.0445Z" fill="#361410"/>
<path d="M321.884 59.4724C321.567 61.4224 320.128 62.1989 318.249 61.5901C317.331 60.1783 316.687 58.343 316.202 56.0929C316.493 55.6341 316.943 55.2281 317.552 54.937C320.552 53.5428 322.237 57.3812 321.884 59.4724Z" fill="#F39E97"/>
<path d="M335.438 57.4517C335.438 57.4694 335.438 57.4694 335.438 57.4694C335.393 57.637 335.341 57.8223 335.288 57.9812C335.261 58.0429 335.243 58.1047 335.226 58.1665C335.093 58.6076 334.908 59.0488 334.696 59.4724C334.643 59.5606 334.599 59.6577 334.564 59.7459C334.335 60.1871 334.07 60.6107 333.752 61.0254C333.69 61.1048 333.629 61.1754 333.549 61.2548V61.2636C332.34 61.5195 330.929 61.0871 329.94 59.94C328.352 58.0959 328.714 55.7487 331.432 55.1399C333.249 54.7605 334.811 56.0134 335.438 57.4517Z" fill="#F39E97"/>
<path d="M317.313 50.2421C316.678 49.9509 318.072 48.3361 319.502 48.1773C320.922 48.0185 322.952 50.648 322.29 50.9127C321.619 51.1686 320.799 49.1303 319.431 49.1038C319.431 49.1038 320.102 50.5774 319.149 50.9303C318.196 51.2921 318.072 49.7215 318.072 49.7215C318.072 49.7215 317.728 50.4362 317.313 50.2421Z" fill="#361410"/>
<path d="M327.602 50.9835C327.055 50.7982 327.567 49.1923 329.217 48.5305C330.867 47.8688 333.055 49.8982 332.579 50.4718C332.102 51.0453 331.643 49.0511 329.693 49.3953C329.693 49.3953 330.523 51.01 329.411 51.3012C328.299 51.5924 328.458 50.0306 328.458 50.1276C328.449 50.2071 328.123 51.1512 327.602 50.9835Z" fill="#361410"/>
<path d="M475.806 138.428C475.577 137.942 475.347 137.413 475.136 136.83C474.818 135.975 474.562 135.092 474.342 134.183C475.409 133.636 476.706 134.58 477.165 136.072C477.589 137.545 476.706 138.375 475.806 138.428Z" fill="#F39E97"/>
<path d="M482.839 137.148C484.595 138.975 487.18 136.698 487.277 134.624C487.374 132.551 485.371 131.695 483.757 132.992C482.142 134.289 481.983 136.257 482.839 137.148Z" fill="#F39E97"/>
<path d="M474.086 129.912C473.406 129.718 474.439 128.104 475.418 127.883C476.406 127.662 477.801 129.568 477.448 129.912C477.095 130.265 476.451 128.88 475.727 128.889C475.727 128.889 476.142 129.851 475.577 130.195C475.003 130.548 474.659 129.524 474.659 129.524C474.659 129.524 474.509 130.036 474.086 129.912Z" fill="#361410"/>
<path d="M481.348 129.277C480.898 129.277 481.224 127.53 482.962 126.806C484.71 126.074 485.848 127.936 485.468 128.386C485.089 128.836 484.454 127.098 483.121 127.565C483.121 127.565 483.792 128.836 482.804 129.277C481.824 129.718 481.859 128.545 481.859 128.545C481.859 128.545 481.727 129.277 481.348 129.277Z" fill="#361410"/>
<defs>
<linearGradient id="paint0_linear_266_746" x1="478.393" y1="110.789" x2="495.907" y2="158.002" gradientUnits="userSpaceOnUse">
<stop stop-color="#FDC130"/>
<stop offset="1" stop-color="#FAA868"/>
</linearGradient>
<linearGradient id="paint1_linear_266_746" x1="7.3861" y1="384.027" x2="589.544" y2="384.027" gradientUnits="userSpaceOnUse">
<stop offset="0.005" stop-color="#A9A8E1"/>
<stop offset="1" stop-color="#E1E0F4"/>
</linearGradient>
</defs>
</svg>